<?xml version="1.0" standalone="no"?>
<!DOCTYPE svg PUBLIC "-//W3C//DTD SVG 20010904//EN"
 "http://www.w3.org/TR/2001/REC-SVG-20010904/DTD/svg10.dtd">
<svg version="1.0" xmlns="http://www.w3.org/2000/svg"
 width="952.000000pt" height="952.000000pt" viewBox="0 0 952.000000 952.000000"
 preserveAspectRatio="xMidYMid meet">
<metadata>
Created by potrace 1.14, written by Peter Selinger 2001-2017
</metadata>
<g transform="translate(0.000000,952.000000) scale(0.100000,-0.100000)"
fill="#000000" stroke="none">
<path d="M2622 9503 c-6 -3 -10 -9 -6 -14 7 -12 -3 -11 -25 3 -11 6 -26 8 -37
3 -11 -5 -22 -7 -26 -7 -5 1 -8 -3 -8 -9 0 -6 -9 -8 -22 -3 -35 11 -78 13 -72
3 3 -5 -1 -9 -9 -9 -25 0 -29 -29 -27 -225 1 -104 4 -390 6 -635 2 -245 7
-827 10 -1295 2 -467 6 -937 7 -1043 2 -165 0 -193 -13 -196 -21 -6 -929 0
-935 6 -3 3 -23 2 -45 -2 -22 -4 -40 -5 -40 -1 0 3 -100 5 -223 5 -269 -2
-270 -2 -262 -14 3 -5 0 -10 -8 -10 -15 0 -17 -46 -3 -68 3 -6 1 -14 -5 -17
-5 -4 -8 -13 -5 -21 3 -8 1 -14 -4 -14 -14 0 -13 -37 1 -46 8 -4 7 -9 -2 -14
-17 -11 -20 -42 -6 -61 28 -37 44 -39 458 -33 660 9 1078 11 1087 5 5 -3 9
-55 8 -116 0 -91 2 -110 14 -107 12 2 12 0 -1 -10 -27 -22 -19 -54 13 -49 9 1
4 -27 -7 -36 -4 -4 -5 -3 -1 4 7 13 -10 28 -18 15 -3 -5 -1 -23 4 -41 5 -19 5
-29 -1 -26 -5 4 -9 2 -9 -4 0 -5 5 -11 12 -13 7 -3 8 -9 3 -18 -15 -24 -12
-60 5 -61 10 0 9 -3 -4 -8 -16 -6 -17 -9 -4 -13 15 -6 40 4 39 16 -3 20 1 25
16 19 12 -5 10 0 -6 16 -15 15 -19 26 -13 38 5 9 7 25 4 36 -4 15 -2 18 8 12
9 -6 11 -4 5 5 -6 10 -4 12 8 7 21 -8 33 11 18 26 -9 9 -11 8 -6 -3 4 -11 -2
-15 -19 -16 -17 -1 -23 2 -19 12 3 8 10 11 17 7 6 -4 5 1 -3 10 -7 9 -10 17
-5 17 4 0 3 5 -4 12 -17 17 -15 28 6 24 56 -13 69 -23 78 -64 2 -10 -1 -10
-12 -1 -7 6 -12 15 -9 19 3 5 1 11 -4 15 -13 8 -5 -33 10 -51 13 -16 20 -86 8
-79 -7 5 -21 -19 -24 -40 -1 -5 2 -20 6 -32 5 -12 4 -24 -2 -27 -5 -2 -4 -3 3
-2 7 2 12 13 10 24 -2 12 1 22 5 22 15 0 10 -109 -5 -115 -7 -3 -10 -9 -7 -15
3 -5 1 -10 -4 -10 -6 0 -11 -5 -11 -11 0 -8 5 -8 15 1 8 7 12 16 9 21 -3 5 -1
9 3 9 5 0 9 -29 9 -65 0 -36 -3 -61 -6 -54 -5 6 -9 3 -12 -9 -4 -13 -2 -19 6
-16 9 3 12 -11 12 -45 1 -28 -3 -48 -8 -45 -5 4 -4 -4 4 -15 11 -18 11 -23 -2
-31 -8 -5 -18 -6 -24 -3 -5 3 -6 1 -3 -5 4 -5 17 -8 30 -5 15 3 18 2 9 -4 -14
-11 -26 -57 -11 -48 5 4 9 -6 9 -20 0 -14 -4 -24 -8 -21 -5 3 -9 -1 -9 -9 0
-8 4 -12 9 -9 13 8 9 -41 -4 -55 -8 -9 -8 -11 -2 -8 7 4 15 0 18 -9 3 -8 2
-13 -3 -10 -5 3 -11 -1 -14 -9 -4 -10 -1 -12 11 -9 16 5 16 5 0 -8 -15 -13
-15 -15 0 -27 16 -11 16 -12 0 -7 -10 3 -20 1 -23 -5 -4 -5 -3 -9 2 -8 25 4
35 -1 24 -14 -8 -10 -7 -17 2 -27 10 -10 8 -12 -8 -6 -20 6 -20 6 -1 -9 11 -8
14 -15 8 -15 -9 0 -10 -5 -3 -19 8 -15 7 -20 -5 -25 -11 -4 -13 -10 -7 -19 6
-6 13 -22 16 -35 4 -19 2 -22 -10 -18 -13 6 -14 4 -3 -9 8 -10 13 -37 11 -71
-1 -31 2 -53 7 -50 5 3 9 -1 9 -9 0 -8 -4 -12 -9 -9 -4 3 -8 -6 -8 -20 0 -13
6 -27 13 -29 10 -4 10 -6 0 -6 -7 -1 -13 -7 -13 -15 0 -8 6 -17 13 -19 10 -4
10 -6 0 -6 -16 -1 -17 -31 -2 -31 6 0 3 -7 -6 -16 -14 -15 -14 -17 2 -31 10
-8 13 -12 7 -9 -7 3 -15 -1 -18 -10 -5 -12 -2 -15 10 -10 14 5 15 4 4 -9 -10
-12 -10 -15 1 -15 9 0 10 -3 4 -8 -15 -10 -20 -66 -5 -57 7 5 7 -1 -2 -14 -11
-18 -11 -23 2 -31 10 -6 11 -10 3 -10 -7 0 -13 -7 -13 -16 0 -9 5 -12 13 -8 9
6 9 4 1 -7 -14 -18 -14 -89 0 -89 6 0 4 -5 -4 -10 -13 -9 -13 -10 0 -10 13 0
13 -1 0 -10 -10 -6 -11 -10 -2 -10 6 0 12 -5 12 -11 0 -6 -8 -8 -17 -5 -17 6
-17 5 0 -8 14 -10 15 -15 5 -19 -11 -4 -10 -7 1 -15 11 -8 11 -10 0 -15 -10
-4 -10 -6 -1 -6 6 -1 12 -6 12 -12 0 -5 -4 -8 -9 -5 -5 4 -8 -1 -7 -9 3 -19
16 -32 16 -15 0 7 3 10 7 7 3 -4 -2 -17 -13 -29 -16 -18 -17 -21 -2 -15 12 4
15 2 11 -9 -3 -9 -12 -13 -21 -9 -11 4 -12 2 -5 -7 6 -7 9 -21 8 -31 -2 -9 0
-15 5 -12 14 9 20 -26 8 -48 -16 -29 -18 -47 -7 -47 5 0 9 -5 9 -11 0 -5 -4
-8 -8 -5 -10 6 -9 -30 1 -40 10 -10 9 -26 -1 -20 -5 3 -9 -1 -9 -9 0 -20 21
-19 38 2 8 9 9 14 3 11 -12 -8 -13 170 0 191 6 9 5 12 -2 7 -6 -3 -13 -2 -17
4 -3 5 -1 10 5 10 7 0 9 24 6 72 -3 45 -1 66 5 57 12 -19 11 -2 -1 21 -8 14
-6 21 6 28 15 8 15 10 -1 15 -9 4 -13 12 -9 18 3 6 1 15 -7 19 -10 7 -10 11 0
24 8 9 9 16 3 16 -5 0 -13 7 -16 16 -5 14 -4 15 9 4 13 -11 18 -11 28 0 9 10
9 11 0 6 -8 -4 -13 -2 -14 6 0 7 -2 23 -3 35 -2 13 0 23 3 23 4 0 12 10 20 23
13 21 13 21 -5 5 -18 -16 -19 -15 -20 8 -1 13 2 24 8 24 5 0 6 5 3 10 -4 6
-12 8 -18 4 -7 -3 -1 4 13 17 14 13 21 20 14 16 -7 -4 -15 -3 -19 3 -3 5 -2
10 4 10 7 0 7 9 0 27 -7 18 -7 29 0 31 6 2 6 14 1 33 -9 31 -3 37 20 17 12
-11 12 -10 2 3 -6 9 -8 20 -4 24 4 5 2 5 -4 2 -7 -4 -14 0 -18 8 -6 18 -2 19
27 4 20 -9 20 -9 5 4 -10 8 -14 18 -10 22 4 5 1 5 -7 0 -11 -6 -13 -1 -9 23 2
17 0 34 -6 36 -6 2 -3 5 6 5 9 1 20 5 23 11 3 5 0 7 -8 4 -8 -3 -17 2 -20 10
-4 9 -2 16 3 16 5 0 7 6 4 14 -3 8 0 17 6 21 7 4 8 11 1 18 -9 12 -14 40 -12
66 1 8 7 11 18 7 10 -4 14 -4 10 0 -4 4 1 13 11 21 15 13 15 13 -5 4 -32 -16
-33 -15 -31 29 1 22 5 40 10 40 5 0 6 -4 3 -10 -3 -5 -1 -10 4 -10 16 0 13 20
-4 26 -8 4 -15 15 -15 26 0 10 5 16 10 13 6 -4 8 -10 5 -15 -3 -4 2 -11 10
-14 13 -4 13 -2 5 14 -5 10 -7 25 -4 33 3 8 1 18 -5 22 -7 3 -8 0 -5 -9 3 -9
2 -16 -3 -16 -5 0 -9 14 -9 30 0 37 8 38 26 5 7 -14 17 -25 22 -25 5 0 6 5 2
12 -5 8 -2 9 10 5 10 -4 15 -3 11 3 -4 6 -12 9 -18 8 -7 -2 -12 1 -12 5 0 5
-9 14 -20 20 -21 13 -32 57 -14 57 5 0 8 -4 5 -9 -3 -4 1 -17 10 -27 14 -18
14 -17 3 5 -10 21 -9 23 5 18 8 -3 18 -1 22 5 4 6 3 8 -3 5 -17 -10 -47 19
-49 47 0 14 2 24 5 20 6 -6 8 -12 10 -40 0 -8 6 -12 11 -9 7 4 7 11 2 18 -5 7
-8 31 -7 55 1 23 -1 45 -5 47 -4 3 -6 -9 -5 -25 1 -17 -1 -30 -5 -30 -9 0 -7
71 3 87 4 6 2 13 -5 15 -7 3 -5 7 6 11 12 5 15 3 10 -6 -4 -7 -3 -9 2 -4 5 5
10 13 10 18 1 5 2 12 3 16 2 10 41 -29 41 -41 0 -6 -4 -6 -11 1 -9 9 -18 8
-35 -4 -23 -14 -24 -33 -3 -33 6 0 8 4 5 9 -3 5 0 14 8 20 11 9 15 9 19 -1 4
-10 7 -10 18 -1 10 10 10 16 -3 30 -14 16 -15 22 -3 43 9 17 10 29 3 37 -7 9
-7 18 2 28 11 13 10 14 -5 9 -15 -6 -16 -4 -6 14 6 11 8 28 4 38 -5 13 -3 15
7 9 10 -6 11 -4 4 6 -14 24 -16 51 -2 43 10 -5 10 -4 1 6 -6 7 -9 19 -6 26 3
8 0 14 -7 14 -6 0 -8 5 -5 10 4 6 12 7 18 4 7 -4 9 -4 5 1 -4 4 -3 14 4 22 6
8 7 13 2 12 -23 -4 -26 3 -8 22 11 13 13 19 5 17 -8 -2 -15 7 -17 21 -4 21 -3
22 13 10 11 -9 8 -1 -7 20 -18 26 -20 33 -8 28 13 -5 16 -1 12 19 -3 19 -1 24
8 18 7 -4 5 2 -4 13 -21 23 -24 37 -5 27 6 -4 8 -3 4 1 -4 5 -14 10 -21 11
-18 2 -14 -25 5 -37 11 -7 11 -9 0 -9 -10 0 -11 -3 -2 -14 9 -11 7 -13 -11
-11 -33 4 -34 4 -12 21 12 10 13 14 4 11 -12 -4 -15 8 -15 64 0 38 3 69 8 69
31 0 56 17 52 37 -2 10 -4 18 -5 18 -1 0 -4 15 -7 34 -3 22 0 37 9 42 12 8 6
10 -29 9 -5 -1 -7 -12 -6 -25 2 -20 0 -23 -11 -12 -8 7 -10 14 -4 18 5 3 9 9
8 13 0 3 4 14 9 24 7 11 11 12 11 4 0 -7 5 -10 10 -7 7 5 8 11 1 18 -7 9 15
13 85 14 52 1 98 4 103 8 5 3 12 1 16 -5 4 -6 11 -7 17 -3 18 10 98 10 98 0 0
-6 5 -6 13 0 6 6 40 9 74 8 43 -1 60 1 56 9 -5 8 -3 8 8 0 12 -9 72 -12 89 -4
3 1 10 1 15 0 38 -8 45 -8 45 1 0 5 5 9 11 9 5 0 7 -4 4 -10 -8 -13 8 -13 22
1 8 8 13 8 17 0 4 -6 12 -11 17 -11 6 0 8 4 5 9 -4 5 9 6 29 1 21 -5 35 -4 35
2 0 5 6 6 13 1 16 -10 137 -11 131 -1 -7 10 -1 10 31 -2 14 -5 24 -6 21 -2 -3
5 1 9 9 9 8 0 12 -4 9 -9 -3 -4 -2 -8 3 -8 4 0 9 -87 10 -193 1 -105 4 -473 8
-817 3 -344 7 -737 8 -875 1 -137 5 -255 9 -261 4 -6 5 -14 1 -18 -11 -10 -10
-76 1 -76 8 0 8 -3 1 -8 -12 -8 -13 -22 -2 -39 4 -6 4 -14 -1 -17 -10 -6 -9
-86 1 -104 5 -7 3 -12 -4 -12 -7 0 -4 -7 7 -16 10 -8 14 -13 7 -10 -15 8 -27
-11 -12 -20 8 -4 7 -9 -2 -15 -11 -7 -11 -9 -1 -9 8 0 10 -5 6 -12 -10 -16
-12 -108 -2 -102 13 8 9 -11 -4 -25 -11 -12 -10 -13 6 -7 20 7 20 7 0 -15 -10
-12 -14 -19 -7 -16 8 5 11 0 10 -13 -1 -11 -6 -20 -11 -20 -5 0 -1 -7 10 -15
10 -8 15 -15 9 -14 -24 3 -27 -2 -10 -15 18 -13 18 -15 2 -30 -15 -16 -13 -51
3 -41 14 9 5 -40 -10 -53 -13 -12 -13 -13 0 -9 12 3 17 -3 18 -24 2 -23 -1
-27 -15 -23 -17 5 -17 5 0 -6 9 -6 14 -16 11 -22 -10 -16 -12 -78 -2 -72 4 3
8 -2 8 -11 0 -10 -5 -13 -12 -9 -7 4 -10 4 -6 -1 4 -4 2 -15 -5 -24 -11 -14
-10 -14 6 -2 20 15 22 9 6 -21 -8 -15 -8 -19 0 -14 6 4 11 4 11 1 0 -4 -5 -16
-11 -27 -8 -15 -8 -19 0 -14 6 4 11 0 11 -9 0 -10 -5 -13 -12 -9 -7 4 -8 3 -4
-5 4 -6 3 -18 -3 -25 -8 -9 -7 -13 4 -13 8 0 12 4 9 9 -3 4 0 8 6 8 12 0 3
-47 -13 -68 -7 -9 -6 -11 6 -6 20 7 17 -24 -4 -37 -11 -7 -11 -9 -1 -9 8 0 12
-9 11 -22 -2 -13 1 -29 5 -37 6 -10 5 -12 -2 -7 -7 4 -12 2 -12 -3 0 -6 6 -11
13 -11 9 0 8 -3 -2 -9 -11 -7 -11 -9 0 -14 9 -3 7 -6 -6 -7 -18 -1 -18 -2 4
-11 15 -6 28 -6 35 0 8 7 11 1 11 -19 1 -16 -3 -26 -7 -24 -5 3 -6 9 -3 14 3
4 -4 10 -15 13 -23 6 -27 -12 -7 -32 10 -11 10 -13 0 -7 -8 5 -13 1 -13 -9 0
-9 3 -14 8 -11 4 2 16 -2 27 -10 10 -8 14 -14 9 -14 -6 0 -15 5 -22 12 -9 9
-12 9 -12 -1 0 -11 -3 -11 -17 0 -16 12 -17 12 -7 -1 6 -8 10 -40 10 -72 -1
-31 2 -54 6 -51 13 7 9 -12 -4 -26 -10 -11 -10 -13 0 -7 15 9 16 -6 0 -22 -14
-14 0 -16 21 -3 7 5 10 14 7 20 -4 6 -3 11 2 11 6 0 12 -7 16 -15 3 -8 1 -15
-5 -15 -6 0 -7 -5 -4 -10 4 -6 11 -8 16 -5 5 4 9 1 9 -5 0 -7 -6 -10 -14 -7
-7 3 -20 0 -27 -6 -11 -10 -11 -9 0 6 16 20 -1 23 -18 3 -14 -16 6 -27 39 -21
16 3 19 1 11 -13 -6 -11 -4 -20 7 -29 14 -11 15 -12 1 -8 -12 5 -15 -1 -14
-27 2 -26 6 -33 21 -31 18 1 18 0 -2 -13 -15 -10 -19 -22 -16 -44 2 -16 8 -27
13 -24 5 3 9 0 9 -6 0 -7 -6 -10 -14 -7 -7 3 -19 0 -25 -6 -10 -9 -12 -9 -9 3
2 8 8 19 13 23 6 5 1 6 -10 3 -19 -6 -19 -5 -2 8 10 8 14 16 10 19 -15 10 -29
-7 -28 -33 1 -14 -3 -34 -8 -45 -5 -11 -6 -17 -2 -13 11 10 47 -11 40 -23 -4
-5 -11 -9 -16 -9 -6 0 -7 5 -3 12 4 7 3 8 -5 4 -6 -4 -9 -12 -6 -17 4 -5 0 -9
-7 -9 -8 0 -9 -3 -3 -8 16 -11 18 -52 3 -52 -7 -1 -2 -7 12 -15 14 -8 19 -14
13 -15 -15 0 -18 -30 -3 -30 6 0 10 -5 10 -11 0 -5 -4 -8 -9 -5 -13 8 -21 -18
-11 -34 5 -8 5 -21 0 -30 -5 -9 -5 -22 1 -31 12 -19 11 -32 -2 -23 -8 5 -8 1
0 -13 6 -11 8 -22 6 -25 -3 -3 2 -5 9 -5 8 0 14 5 13 11 -1 6 6 10 15 8 13 -2
17 5 16 38 0 25 -4 37 -11 33 -6 -4 -7 -1 -2 6 6 10 3 11 -14 2 -14 -8 -21 -8
-21 -1 0 5 5 10 11 10 6 0 3 7 -6 17 -15 14 -15 17 -2 25 10 5 14 20 12 45 -2
21 1 43 6 49 7 9 4 14 -11 19 -22 7 -22 7 -2 21 19 13 23 28 11 49 -8 16 -5
35 6 33 5 -2 8 -11 7 -22 -2 -10 1 -15 6 -12 6 4 14 1 18 -5 4 -7 3 -9 -4 -5
-6 3 -13 2 -17 -4 -3 -5 -2 -10 3 -10 6 0 13 -7 16 -16 5 -14 4 -15 -8 -5 -11
9 -15 8 -19 -4 -4 -8 -3 -14 1 -14 27 4 35 -2 17 -15 -17 -12 -15 -54 2 -43 5
3 8 -17 9 -43 0 -37 -3 -47 -14 -43 -11 5 -11 7 0 14 10 6 10 11 0 21 -9 9
-12 9 -12 -5 0 -9 -5 -17 -11 -17 -7 0 0 -9 13 -20 24 -18 25 -25 25 -104 0
-47 -4 -83 -8 -80 -4 2 -6 13 -4 24 2 11 -1 20 -7 20 -5 0 -8 -6 -5 -13 3 -8
1 -20 -3 -27 -5 -8 -5 -21 0 -30 6 -10 5 -21 -1 -27 -6 -6 -5 -10 5 -10 9 0
13 9 11 24 -1 14 3 23 12 23 10 0 11 -5 5 -16 -5 -9 -6 -32 -2 -50 4 -19 5
-34 1 -34 -4 0 -7 -9 -7 -20 0 -11 3 -20 6 -20 4 0 5 -17 3 -37 -2 -21 -4 -46
-4 -55 0 -11 -6 -15 -17 -12 -9 2 -7 -1 6 -7 13 -7 21 -18 17 -27 -3 -7 -5
-18 -5 -23 0 -6 -4 -8 -10 -4 -5 3 -8 11 -6 18 1 7 1 9 -1 4 -3 -4 -10 -4 -15
-1 -7 4 -8 2 -4 -5 4 -6 3 -18 -4 -26 -8 -10 -8 -15 1 -21 7 -4 9 -3 5 4 -8
14 8 24 26 17 21 -8 18 -37 -6 -58 -21 -18 -21 -18 4 -6 23 11 24 11 11 -4 -7
-10 -9 -17 -4 -17 11 0 10 -70 -1 -88 -4 -7 -3 -12 1 -12 5 0 9 -18 9 -39 0
-24 -4 -37 -9 -34 -6 4 -7 1 -1 -8 13 -21 13 -271 0 -288 -8 -11 -8 -13 2 -7
7 4 12 1 12 -9 0 -10 -5 -13 -12 -9 -10 6 -10 4 -2 -7 6 -8 11 -79 12 -177 1
-90 4 -167 7 -172 3 -4 -1 -11 -7 -14 -9 -3 -7 -9 6 -20 24 -19 43 -21 29 -4
-13 16 -15 80 -2 73 5 -3 6 1 3 9 -3 9 -9 14 -13 11 -4 -2 -8 2 -8 10 0 8 4
12 8 10 4 -3 9 2 13 10 3 8 0 17 -6 21 -7 5 -8 2 -3 -6 5 -8 4 -11 -3 -6 -6 4
-9 13 -6 21 4 8 10 13 14 10 12 -7 1 34 -18 70 -3 6 1 4 9 -2 13 -10 16 -10
16 2 0 8 -4 15 -8 15 -4 0 -10 7 -13 16 -3 8 -2 12 3 9 5 -3 12 -1 16 5 3 5 1
10 -6 10 -8 0 -7 5 2 17 12 15 12 16 -4 10 -16 -6 -16 -5 -1 18 12 19 14 28 5
38 -6 8 -8 17 -4 21 10 10 9 86 -1 86 -5 0 -3 7 4 15 9 10 9 15 1 15 -6 0 -11
5 -11 11 0 5 3 8 8 5 10 -6 8 67 -3 84 -6 9 -4 11 4 6 15 -10 11 25 -4 36 -6
5 -5 8 3 8 6 0 12 5 12 11 0 5 -5 7 -11 3 -8 -4 -8 -1 -2 12 9 16 10 78 3 109
-1 6 -1 12 0 15 1 3 4 34 5 70 3 84 3 82 17 74 7 -4 8 -3 4 4 -4 6 -14 8 -22
5 -14 -5 -14 -3 -3 15 7 11 17 18 23 15 5 -3 6 -1 2 6 -4 6 -11 9 -15 7 -10
-6 -7 137 4 153 5 10 4 12 -3 7 -7 -4 -12 -3 -12 3 0 5 8 12 18 14 12 3 13 5
2 6 -13 1 -14 19 -12 113 2 62 6 115 8 118 3 2 9 -2 14 -10 7 -11 10 -11 10
-2 0 7 -10 17 -22 22 -21 8 -21 9 -3 10 12 0 16 3 9 8 -6 4 -14 18 -17 32 -6
23 -5 24 8 6 13 -18 14 -18 12 3 -1 11 -8 21 -17 22 -10 0 -11 2 -3 6 10 3 10
10 2 25 -8 15 -8 19 0 14 6 -4 11 -2 11 4 0 6 4 8 10 5 6 -3 7 1 3 10 -4 12
-8 13 -13 4 -5 -7 -8 4 -8 25 0 20 4 33 9 30 5 -3 7 -9 4 -14 -3 -5 -2 -11 3
-14 5 -3 8 9 7 27 -2 35 35 74 56 61 7 -4 9 -3 5 4 -3 6 1 9 11 7 10 -1 17 -8
15 -14 -1 -6 2 -11 8 -11 13 0 13 16 -1 42 -6 12 -7 18 -1 14 12 -7 10 83 -3
103 -5 10 -4 12 3 7 7 -4 12 -1 12 8 0 9 -6 16 -12 16 -8 0 -9 3 -3 8 14 10
19 52 6 52 -6 0 -11 5 -11 11 0 5 4 7 10 4 6 -3 10 10 9 32 0 21 1 45 1 53 0
8 -1 32 -3 53 -2 20 0 37 4 37 5 0 6 6 3 13 -9 25 -10 87 -1 87 5 0 4 6 -2 13
-6 8 -8 16 -5 19 3 3 5 39 4 79 0 41 0 81 0 89 -2 316 24 3239 29 3288 0 7 6
10 11 7 6 -3 10 -2 10 2 0 5 9 9 20 10 11 1 19 -1 16 -5 -2 -4 16 -7 40 -8 24
0 44 3 44 8 0 5 -5 6 -12 2 -6 -4 -8 -3 -5 4 4 5 16 8 27 5 11 -3 18 -9 15
-13 -5 -9 32 -5 59 6 14 5 17 4 12 -5 -6 -9 -3 -9 13 1 17 10 25 10 42 0 19
-12 19 -11 10 7 -12 21 -5 29 29 36 11 2 20 -1 20 -6 0 -6 8 -6 20 1 14 7 20
7 20 0 0 -10 -14 -13 -62 -12 -27 1 -27 0 -12 -24 19 -28 26 -31 17 -8 -5 14
0 15 36 10 25 -3 41 -1 41 5 0 6 -6 7 -12 3 -10 -5 -10 -4 -1 6 6 7 9 19 6 26
-3 8 0 14 6 14 7 0 14 -7 17 -15 4 -8 11 -12 16 -8 6 3 24 7 39 9 21 3 27 0
23 -11 -3 -7 -12 -11 -20 -8 -9 3 -12 0 -9 -9 3 -7 14 -14 25 -14 12 0 19 5
16 13 -3 7 -1 15 5 18 5 4 7 12 3 18 -3 7 1 4 9 -5 16 -20 28 -14 20 10 -3 10
-1 13 4 7 4 -5 17 -17 27 -25 18 -13 19 -13 14 0 -4 12 5 15 48 15 36 0 56 -5
59 -13 3 -8 0 -12 -7 -9 -7 2 -19 -3 -26 -12 -12 -15 -13 -15 -9 0 3 9 -1 16
-9 16 -18 0 -18 -23 -1 -30 8 -3 19 -2 26 3 7 4 26 6 42 4 18 -2 29 1 29 9 0
8 4 7 10 -3 5 -8 10 -10 10 -5 0 6 -4 16 -9 24 -7 11 -10 10 -18 -3 -9 -16
-11 -16 -23 -1 -11 14 -11 19 4 33 10 9 16 13 15 7 -4 -24 2 -27 16 -9 11 14
14 15 9 3 -6 -20 11 -34 22 -18 5 8 3 9 -7 4 -12 -8 -12 -6 0 8 7 9 19 17 25
17 6 0 4 -5 -4 -10 -8 -5 -13 -10 -10 -11 3 0 14 -3 25 -5 11 -3 26 -6 33 -6
14 -2 15 -8 2 -28 -5 -8 -10 -10 -10 -4 0 6 -11 16 -25 22 -23 11 -25 10 -16
-7 6 -10 7 -22 3 -27 -4 -5 0 -3 9 4 9 6 19 9 23 5 12 -13 35 -11 30 2 -3 7 6
22 20 32 14 11 24 22 21 24 -2 3 50 4 115 4 65 0 116 -3 114 -7 -2 -4 -13 -5
-24 -3 -12 2 -18 0 -15 -6 4 -5 10 -7 15 -4 4 3 19 -4 31 -16 13 -11 19 -18
12 -15 -6 4 -13 3 -16 -1 -2 -5 -3 -3 -1 2 1 6 -6 12 -16 12 -17 2 -17 0 2
-23 23 -25 34 -32 22 -12 -4 7 -3 8 5 4 9 -6 9 -11 0 -22 -8 -10 -8 -14 0 -14
6 0 11 -5 11 -11 0 -5 -4 -8 -9 -4 -6 3 -6 -6 -1 -25 5 -17 9 -33 9 -35 1 -3
3 -5 6 -5 3 0 10 0 15 0 6 0 10 5 10 10 0 6 -7 10 -15 10 -8 0 -15 5 -15 10 0
7 6 7 19 0 21 -11 25 -54 5 -46 -7 3 -20 -5 -31 -16 -14 -17 -15 -20 -3 -16
17 6 37 -6 60 -37 9 -13 10 -16 1 -8 -7 6 -19 9 -26 7 -7 -3 -16 -1 -20 5 -4
7 1 8 12 4 16 -6 16 -5 4 10 -16 20 -26 15 -34 -13 -3 -13 0 -20 8 -20 20 0
24 -23 8 -42 -13 -15 -12 -18 6 -27 18 -10 19 -8 16 29 -2 22 1 40 6 40 5 0 8
-6 6 -12 -1 -7 5 -12 13 -10 12 2 12 0 -1 -10 -11 -9 -14 -20 -9 -34 5 -11 5
-26 1 -33 -5 -7 -5 -30 -1 -51 6 -32 5 -37 -9 -32 -14 5 -14 4 -1 -14 8 -10
20 -23 25 -27 6 -5 2 -6 -8 -3 -12 4 -17 2 -14 -6 2 -7 11 -12 21 -10 9 2 16
-2 16 -8 0 -5 -3 -9 -8 -7 -4 1 -8 -2 -9 -6 -2 -12 -35 -36 -48 -36 -5 0 -3 5
6 12 17 13 23 50 6 40 -5 -3 -6 3 -2 16 4 14 2 21 -7 21 -10 0 -9 3 2 10 8 5
11 10 7 10 -4 0 -3 9 3 20 6 11 8 25 5 30 -8 13 -32 2 -32 -15 0 -11 4 -12 14
-3 11 8 12 7 7 -6 -3 -9 -10 -16 -14 -16 -5 0 -7 -15 -4 -34 2 -19 -1 -38 -6
-41 -6 -4 -7 -12 -3 -18 4 -7 8 -16 9 -22 1 -5 6 -19 10 -29 5 -12 4 -17 -3
-13 -6 4 -9 -3 -7 -18 1 -14 -3 -25 -9 -25 -7 0 -4 -5 6 -11 9 -5 17 -15 17
-20 0 -6 -5 -7 -12 -3 -7 4 -8 3 -4 -4 10 -17 26 -15 26 3 0 8 6 15 13 15 6 0
1 10 -13 21 -24 20 -24 21 -3 16 20 -4 21 -2 13 14 -6 10 -9 24 -8 31 5 23 38
38 38 17 0 -5 -5 -7 -10 -4 -6 4 -10 -10 -9 -38 2 -38 5 -45 21 -42 10 2 16 0
13 -6 -4 -5 -11 -7 -16 -4 -5 4 -9 -1 -9 -10 0 -10 -5 -13 -12 -9 -10 6 -10 5
-1 -8 17 -20 6 -29 -25 -21 -18 4 -23 2 -20 -8 3 -8 15 -13 28 -11 20 2 21 0
9 -14 -8 -10 -13 -20 -11 -23 2 -3 -1 -7 -7 -9 -6 -2 -8 3 -5 12 3 9 1 16 -6
16 -6 0 -8 -4 -5 -10 3 -5 0 -10 -7 -11 -7 0 -3 -5 10 -11 18 -9 25 -8 36 8 8
10 12 23 9 28 -4 5 -1 6 5 2 7 -4 12 -3 12 3 0 5 -5 12 -10 14 -6 3 -5 4 2 3
9 -2 13 -21 13 -58 0 -31 -3 -54 -7 -52 -5 3 -8 -2 -8 -10 0 -9 -13 -22 -30
-31 -43 -22 -37 -27 9 -7 22 9 37 21 34 26 -4 5 -1 6 5 2 9 -5 9 -13 0 -29
-12 -23 -12 -25 3 -44 6 -7 6 -13 0 -17 -10 -7 -10 -24 1 -42 4 -6 1 -11 -7
-11 -8 0 -12 4 -9 9 3 4 0 8 -5 8 -18 0 -12 -27 7 -32 14 -4 18 -14 16 -44 -1
-21 -3 -39 -4 -39 -1 0 -3 -12 -5 -28 -2 -17 0 -25 7 -21 6 4 6 -2 -1 -15 -13
-24 -23 -29 -15 -7 3 8 2 16 -3 19 -5 3 -8 -9 -8 -26 1 -18 -4 -35 -9 -39 -7
-5 -4 -8 7 -8 11 0 17 6 15 16 -2 10 2 19 7 20 6 2 10 -18 11 -47 1 -44 -1
-50 -18 -46 -10 3 -16 1 -12 -4 3 -5 13 -9 22 -9 14 0 15 -2 2 -10 -9 -6 -20
-5 -30 3 -12 10 -13 10 -4 -3 6 -8 10 -23 9 -32 -2 -10 1 -18 6 -18 6 0 9 7 7
16 -2 10 2 19 8 21 12 4 12 -25 0 -45 -4 -6 -2 -12 3 -12 12 0 10 -27 -2 -47
-5 -8 -4 -13 2 -13 6 0 11 -4 11 -10 0 -5 -8 -7 -17 -4 -15 5 -16 4 -3 -5 11
-7 15 -33 16 -100 0 -50 -3 -88 -7 -85 -4 2 -11 0 -14 -6 -4 -6 -1 -9 7 -8 8
2 13 -7 13 -22 0 -14 5 -28 10 -32 7 -5 7 -8 0 -8 -11 0 -12 -191 -1 -209 4
-6 3 -11 -2 -11 -5 0 -6 -17 -2 -40 4 -22 5 -40 1 -40 -3 0 -5 -15 -5 -32 1
-24 6 -33 18 -32 9 1 13 -3 9 -10 -3 -6 -2 -7 2 -3 17 15 14 39 -3 33 -14 -5
-14 -4 1 8 12 9 14 15 6 18 -9 3 -9 9 1 27 11 21 10 23 -4 18 -15 -6 -15 -4 0
18 15 23 15 27 0 50 -9 13 -16 28 -16 32 0 4 5 1 10 -7 6 -9 10 -10 10 -3 0 6
3 19 7 29 4 12 3 15 -5 10 -16 -10 -15 7 0 22 10 10 10 15 -1 21 -11 7 -11 9
0 14 9 3 7 6 -6 7 -19 1 -19 1 -2 11 15 9 16 13 5 27 -10 12 -10 14 0 8 6 -4
12 -2 12 3 0 6 -6 11 -12 11 -9 0 -8 4 2 10 12 8 12 10 1 10 -11 0 -11 3 0 17
11 13 11 17 2 20 -7 3 -13 9 -13 14 0 6 5 7 12 3 7 -4 8 -3 4 5 -4 6 -2 19 5
27 7 8 8 14 3 12 -8 -3 -16 7 -13 15 0 1 2 20 3 42 1 23 6 47 11 55 8 13 7 13
-9 1 -15 -12 -17 -12 -14 0 2 8 9 19 17 25 11 9 12 12 1 19 -9 6 -11 4 -5 -5
5 -9 4 -11 -4 -6 -9 6 -9 11 0 22 9 11 8 14 -2 14 -8 1 -3 8 11 16 14 8 17 13
8 10 -9 -3 -19 2 -22 10 -3 8 -2 13 3 10 4 -3 8 17 8 44 0 29 -4 47 -9 44 -6
-4 -6 2 1 13 5 11 9 42 9 69 -1 27 2 56 7 63 5 10 4 12 -3 7 -16 -9 -15 7 0
22 9 9 9 12 0 12 -7 0 -12 5 -12 11 0 5 6 7 13 3 8 -5 8 -2 -2 9 -12 15 -11
17 3 17 19 0 21 16 4 26 -7 5 -8 2 -3 -7 5 -8 4 -11 0 -6 -14 12 -12 58 2 53
19 -8 16 5 -4 20 -11 8 -13 13 -6 14 7 0 10 6 7 13 -2 7 -6 29 -7 50 -3 31 0
37 17 38 17 1 18 2 4 6 -10 2 -18 9 -18 14 0 6 6 7 13 3 9 -6 9 -4 0 7 -15 15
-18 43 -4 34 5 -3 13 0 17 6 4 7 3 9 -2 6 -6 -3 -16 -2 -24 4 -13 7 -12 9 3 9
9 0 17 5 17 11 0 5 -4 7 -10 4 -5 -3 -10 1 -10 10 0 9 5 13 10 10 17 -11 11 7
-7 21 -10 7 -13 14 -6 14 7 0 9 11 6 31 -3 21 -1 29 6 24 6 -3 11 -1 11 4 0 6
-4 11 -9 11 -4 0 -8 26 -7 58 1 48 4 57 19 54 9 -2 17 2 17 8 0 6 -5 8 -11 5
-6 -4 -10 -1 -8 6 3 26 -1 40 -10 35 -11 -7 -8 21 4 31 4 4 5 2 0 -6 -6 -10
-4 -12 5 -6 10 6 9 11 -6 23 -16 12 -16 14 -2 9 19 -7 34 8 18 18 -6 4 -8 11
-4 16 3 6 12 1 21 -10 8 -12 18 -19 22 -17 4 3 13 1 21 -5 13 -7 12 -9 -2 -9
-16 0 -20 -6 -17 -26 0 -4 -5 -11 -13 -15 -9 -6 -10 -9 -1 -9 7 0 10 -7 7 -17
-5 -14 -4 -15 4 -4 6 8 9 22 7 32 -2 10 0 21 4 23 4 3 6 -16 5 -42 -1 -26 4
-53 10 -61 8 -11 8 -13 -1 -7 -7 4 -13 2 -13 -3 0 -6 5 -11 10 -11 6 0 10 -5
10 -10 0 -6 -8 -10 -17 -8 -13 2 -17 -5 -19 -32 -1 -19 0 -27 3 -17 2 10 10
14 16 11 8 -5 8 -2 0 7 -7 7 -13 18 -13 24 0 5 4 4 9 -4 8 -13 12 -13 27 0 11
8 8 -1 -9 -25 -14 -22 -23 -44 -20 -49 4 -7 -1 -8 -13 -3 -10 4 -15 3 -10 -1
4 -4 17 -8 29 -8 11 0 22 -7 24 -15 4 -12 3 -12 -5 -1 -7 9 -12 10 -16 2 -4
-6 -11 -9 -15 -7 -3 3 -7 -4 -7 -14 0 -10 3 -17 7 -14 4 2 10 -3 13 -12 9 -22
8 -26 -5 -18 -8 5 -8 1 0 -14 15 -28 14 -37 -3 -23 -11 9 -16 9 -22 0 -4 -7
-3 -9 4 -5 12 7 35 -27 25 -38 -3 -3 -1 -6 6 -6 7 0 9 -5 6 -10 -4 -6 -2 -17
5 -25 8 -10 8 -15 -1 -21 -8 -4 -9 -3 -5 4 4 7 2 12 -3 12 -6 0 -11 6 -11 14
0 8 -5 18 -11 21 -5 4 -3 -10 5 -30 19 -45 20 -58 4 -50 -7 4 -3 -2 10 -13 15
-14 18 -22 10 -25 -10 -4 -10 -6 0 -6 6 -1 12 -5 12 -11 0 -5 -8 -7 -17 -3
-15 5 -14 3 2 -11 l20 -16 -20 6 c-16 5 -17 4 -5 -5 13 -9 13 -11 0 -11 -9 0
-11 -3 -5 -8 6 -4 11 -18 10 -32 0 -16 5 -24 14 -22 9 2 11 -3 7 -13 -3 -9 -6
-20 -6 -23 0 -4 -4 -1 -9 6 -7 11 -9 11 -14 -1 -4 -11 0 -15 12 -12 14 3 18
-2 17 -21 0 -13 -5 -22 -11 -20 -5 2 -9 9 -8 15 2 6 -2 11 -7 11 -14 0 -13
-13 2 -28 8 -8 9 -12 1 -12 -12 0 -11 -65 1 -77 3 -4 6 2 5 13 -4 42 1 66 14
61 9 -3 12 13 12 68 0 48 -4 71 -11 68 -6 -2 -11 3 -11 12 0 9 5 14 11 12 7
-3 11 12 11 38 0 24 -3 41 -7 39 -14 -9 -21 27 -9 39 9 9 11 8 6 -5 -4 -10 -3
-18 1 -18 5 0 9 83 9 184 0 109 -4 182 -9 179 -5 -4 -6 0 0 8 13 22 14 41 0
36 -7 -3 -12 4 -13 17 0 11 1 15 4 9 11 -29 22 -10 18 32 -2 25 1 47 5 50 5 3
6 16 2 28 -9 28 -9 68 1 84 4 6 4 14 -1 16 -7 5 -7 50 0 244 3 70 4 73 28 74
14 1 30 0 35 -1 16 -4 29 -3 48 5 12 5 17 2 17 -11 0 -14 2 -16 9 -6 4 8 11
13 15 13 24 -3 28 0 17 12 -6 8 -8 16 -6 19 3 3 -4 8 -15 11 -16 4 -20 2 -16
-8 3 -9 0 -12 -9 -8 -8 3 -12 10 -8 17 3 6 1 6 -8 -1 -14 -14 -33 -18 -25 -5
2 4 -5 9 -17 9 -16 2 -18 0 -8 -6 10 -6 5 -9 -15 -8 -16 1 -32 6 -35 10 -9 12
-3 1278 14 3044 3 237 2 443 -1 458 -3 17 -9 24 -19 21 -8 -3 -11 -1 -8 4 9
14 -18 16 -82 7 -18 -2 -31 -1 -29 2 3 3 -7 11 -20 18 -19 9 -27 8 -37 -2 -10
-10 -18 -10 -33 -2 -30 18 -47 17 -65 -2 -36 -38 -38 -54 -34 -307 4 -263 16
-1440 18 -1854 1 -151 6 -248 12 -252 6 -5 6 -8 -2 -8 -12 0 -12 -17 0 -36 3
-6 3 -14 -1 -18 -11 -12 -9 -70 3 -78 7 -5 7 -8 -1 -8 -12 0 -12 -89 0 -108 4
-6 3 -12 -2 -12 -5 0 -9 -7 -9 -15 0 -8 4 -12 9 -9 4 3 8 1 8 -5 0 -5 -5 -13
-11 -17 -8 -4 -7 -9 2 -15 12 -8 11 -11 -1 -19 -13 -9 -7 -14 12 -11 4 0 5 -6
2 -14 -4 -8 -9 -13 -13 -10 -12 7 -6 -27 8 -54 7 -13 9 -21 3 -17 -5 3 -13 -1
-16 -10 -3 -8 -2 -13 3 -10 5 3 12 -1 15 -10 3 -8 2 -13 -3 -10 -5 3 -12 -1
-15 -10 -3 -8 -2 -12 4 -9 13 8 13 -1 0 -25 -7 -13 -7 -21 2 -26 6 -4 8 -3 4
4 -3 6 -3 13 2 16 4 2 8 -13 7 -34 0 -21 -3 -36 -7 -33 -5 2 -8 0 -8 -6 0 -5
6 -12 13 -14 6 -3 3 -6 -7 -6 -20 -1 -20 -1 0 -17 14 -11 16 -17 6 -21 -10 -4
-10 -8 -2 -19 7 -7 8 -19 4 -26 -11 -17 -12 -68 -2 -62 15 10 8 -15 -9 -32
-16 -16 -16 -17 -2 -12 12 5 18 0 22 -18 2 -13 0 -27 -6 -31 -6 -4 -7 -1 -2 7
5 9 4 11 -4 6 -6 -4 -9 -12 -5 -17 3 -5 0 -18 -7 -27 -11 -14 -11 -15 1 -4 20
18 29 15 23 -8 -3 -11 -8 -18 -12 -16 -8 5 -7 -42 2 -50 3 -3 3 -13 0 -22 -4
-10 -2 -13 5 -8 8 5 10 2 5 -9 -3 -9 -9 -13 -12 -8 -11 15 -95 10 -109 -6 -12
-14 -13 -14 -9 -1 4 13 -7 15 -59 15 -44 0 -64 -4 -64 -12 0 -7 -5 -13 -11
-13 -6 0 -9 6 -6 13 4 10 -23 13 -122 12 -72 0 -129 -4 -133 -10 -5 -6 -8 -5
-8 3 0 7 -4 10 -10 7 -5 -3 -10 -1 -10 5 0 6 -5 8 -10 5 -6 -4 -7 -11 -4 -17
4 -6 -1 -6 -14 1 -18 9 -23 8 -32 -9 -11 -20 -3 -26 25 -20 6 1 34 3 62 4 46
2 51 0 40 -13 -9 -12 -9 -13 1 -7 6 4 18 4 25 -1 14 -9 68 -12 62 -4 -1 3 9
15 23 25 14 11 22 14 18 8 -11 -17 10 -15 28 4 9 8 16 12 16 7 0 -5 -5 -14
-12 -21 -18 -18 3 -15 23 4 13 12 19 12 25 3 4 -7 3 -10 -4 -5 -17 10 -23 -9
-7 -30 13 -19 13 -18 12 1 -2 15 5 20 23 22 14 0 30 2 35 3 6 1 14 2 20 0 5
-1 15 7 23 17 13 17 14 16 8 -7 l-7 -25 16 25 c15 23 15 24 10 2 -5 -17 -3
-21 12 -19 10 1 23 6 29 10 15 9 24 -1 17 -19 -3 -8 0 -14 6 -14 6 0 10 6 8
13 -1 6 4 11 11 10 6 -2 12 2 12 8 0 5 4 7 10 4 6 -3 7 1 4 12 -5 17 -5 17 6
0 8 -13 8 -22 1 -31 -8 -9 -7 -13 4 -13 8 0 12 4 9 9 -3 4 -1 8 4 8 15 0 12
-58 -4 -71 -10 -8 -14 -8 -14 0 0 6 5 11 12 11 6 0 8 3 5 6 -4 4 -13 1 -22 -6
-8 -7 -15 -9 -15 -4 0 4 -5 3 -12 -4 -16 -16 -33 -15 -20 1 8 10 6 13 -8 13
-10 0 -17 -3 -14 -7 2 -4 -11 -6 -28 -5 -18 1 -44 -2 -58 -7 -20 -7 -23 -6
-12 4 6 7 12 18 12 24 0 5 -4 4 -9 -3 -4 -7 -22 -16 -39 -18 -26 -4 -32 -2
-33 13 0 15 -2 15 -7 3 -6 -13 -32 -15 -159 -15 -120 0 -149 3 -141 13 6 6 7
12 2 12 -5 0 -2 5 6 11 13 9 13 10 0 6 -8 -2 -14 -9 -13 -14 1 -5 -7 -14 -17
-20 -15 -10 -17 -9 -13 6 6 24 -14 36 -32 21 -16 -13 -10 -34 6 -24 5 3 7 10
4 15 -4 5 -1 9 4 9 13 0 14 -10 3 -28 -9 -13 -42 -7 -42 8 0 4 -7 10 -15 14
-12 4 -13 2 -5 -13 8 -16 6 -19 -8 -17 -9 2 -17 9 -17 17 0 8 -6 19 -14 25 -8
6 -11 16 -8 21 10 16 47 23 47 10 0 -7 5 -5 10 3 5 8 10 10 10 3 0 -18 32 -8
48 15 13 20 13 22 -2 22 -10 0 -15 -4 -11 -9 3 -5 0 -13 -6 -17 -7 -4 -9 -3
-5 4 10 17 -13 25 -31 10 -12 -9 -15 -9 -9 -1 5 10 -5 12 -39 10 -25 -1 -45 1
-45 6 0 6 -5 6 -12 0 -7 -5 -51 -8 -98 -6 -108 4 -172 3 -181 -3 -4 -2 -10 0
-14 6 -4 7 -12 7 -24 0 -10 -5 -21 -7 -24 -4 -3 3 -268 7 -589 9 -321 2 -620
4 -666 4 -53 1 -81 5 -77 11 3 6 0 10 -7 10 -9 0 -9 3 2 10 8 5 10 10 5 10 -6
0 -11 9 -11 20 0 11 4 20 8 20 4 0 8 -5 8 -12 0 -6 3 -8 6 -5 4 4 1 14 -7 23
-20 24 -21 47 -1 40 13 -5 12 -2 -2 9 -17 13 -15 19 5 17 3 -1 6 5 6 13 0 8
-4 12 -8 10 -13 -8 -17 19 -6 45 16 41 16 49 -1 43 -14 -4 -14 -2 1 10 15 12
16 19 8 36 -13 23 -14 34 -3 27 11 -7 9 158 -3 166 -6 5 -6 8 3 8 6 0 12 5 12
11 0 5 -4 8 -8 5 -5 -3 -9 1 -9 9 0 8 4 12 9 9 5 -3 6 7 3 23 -8 35 -8 42 0
73 5 19 4 22 -4 10 -7 -9 -11 -10 -11 -3 0 6 5 15 10 18 6 3 10 11 10 16 0 6
-4 8 -8 5 -5 -3 -9 1 -9 9 0 8 4 12 7 10 4 -3 8 6 8 20 0 16 -5 22 -12 18 -8
-5 -8 -3 0 8 16 20 17 89 1 89 -8 0 -8 3 -2 8 15 10 17 62 3 79 -6 8 -7 13 -2
12 21 -4 26 2 14 16 -10 12 -10 15 1 15 10 0 10 3 3 8 -8 5 -9 23 -4 55 4 26
3 50 -2 53 -4 3 -4 12 1 21 5 9 5 29 1 44 -5 15 -6 30 -3 33 8 8 7 91 -1 105
-4 6 -4 11 1 11 4 0 9 215 11 478 5 935 9 1178 15 1189 4 7 4 14 -1 17 -4 2
-6 24 -4 48 2 24 3 49 3 56 -1 35 -1 66 2 161 3 108 -15 180 -45 182 -7 0 -20
2 -28 3 -8 2 -21 1 -28 -1z m65 -3028 c0 -8 -4 -12 -9 -9 -5 3 -6 10 -3 15 9
13 12 11 12 -6z m2634 -22 c13 -16 12 -17 -3 -4 -10 7 -18 15 -18 17 0 8 8 3
21 -13z m-2634 -18 c0 -8 -4 -12 -9 -9 -5 3 -6 10 -3 15 9 13 12 11 12 -6z
m2637 -34 c3 -5 -1 -14 -8 -20 -10 -9 -16 -9 -21 -1 -4 6 -1 9 7 8 7 -2 12 3
11 10 -3 14 3 16 11 3z m11 -41 c-3 -5 -12 -10 -18 -10 -7 0 -6 4 3 10 19 12
23 12 15 0z m-190 -19 c3 -5 2 -12 -3 -15 -5 -3 -9 1 -9 9 0 17 3 19 12 6z
m-2630 -19 c-3 -3 -11 0 -18 7 -9 10 -8 11 6 5 10 -3 15 -9 12 -12z m2821 -4
c4 -7 3 -8 -4 -4 -7 4 -12 2 -12 -5 0 -7 -3 -10 -6 -6 -6 5 3 27 11 27 2 0 7
-5 11 -12z m-2821 -33 c0 -12 -4 -22 -10 -22 -5 0 -10 10 -10 22 0 12 5 22 10
22 6 0 10 -10 10 -22z m2819 -7 c-6 -9 -44 -6 -44 3 0 4 11 6 24 5 13 0 22 -4
20 -8z m-18 -63 c-8 -13 -12 -26 -8 -29 3 -4 12 4 19 16 l14 23 -7 -24 c-5
-18 -3 -22 7 -16 8 5 11 4 6 -1 -5 -5 -13 -10 -18 -10 -5 -1 -14 -2 -20 -3 -5
0 -7 -5 -4 -11 3 -5 2 -10 -4 -10 -10 0 -9 39 2 56 3 6 4 21 2 33 -4 19 -2 21
11 10 13 -10 13 -14 0 -34z m-2806 25 c0 -5 -4 -10 -10 -10 -5 0 -10 5 -10 10
0 6 5 10 10 10 6 0 10 -4 10 -10z m6 -29 c-4 -5 -2 -11 4 -13 6 -2 1 -9 -10
-16 -12 -7 -20 -8 -20 -2 0 5 5 10 10 10 6 0 9 3 9 8 -2 12 1 22 7 22 3 0 3
-4 0 -9z m4 -51 c-13 -9 -13 -10 0 -10 11 -1 11 -3 -3 -11 -18 -10 -18 -11 0
-25 17 -14 17 -14 -3 -5 -15 7 -25 7 -34 -2 -12 -10 -12 -9 -1 5 7 9 10 22 6
27 -3 7 0 8 10 5 9 -4 15 -3 14 2 -3 17 1 24 14 24 8 0 7 -4 -3 -10z m2811
-13 c-6 -8 -7 -18 -3 -22 4 -5 1 -5 -5 -1 -8 4 -13 1 -13 -9 0 -9 4 -14 9 -11
10 6 25 -24 16 -32 -3 -3 -5 0 -5 6 0 7 -4 12 -9 12 -6 0 -8 -8 -6 -18 2 -11
-3 -19 -10 -19 -8 0 -11 5 -7 11 10 17 11 36 1 36 -14 0 -6 23 16 42 24 21 32
23 16 5z m-2820 -60 c-1 -12 -15 -9 -19 4 -3 6 1 10 8 8 6 -3 11 -8 11 -12z
m1894 -47 c3 -5 1 -10 -4 -10 -6 0 -11 5 -11 10 0 6 2 10 4 10 3 0 8 -4 11
-10z m345 -15 c-25 -27 -64 -28 -66 -2 -1 10 0 11 3 3 2 -8 12 -12 23 -9 11 3
17 9 14 14 -3 5 3 6 12 2 10 -4 15 -2 11 4 -3 5 1 10 9 10 11 0 9 -6 -6 -22z
m173 4 c-8 -8 -13 -7 -18 2 -5 8 -4 10 3 5 7 -4 12 -2 12 5 0 7 3 9 7 6 4 -4
2 -12 -4 -18z m162 12 c6 -1 3 -6 -5 -11 -9 -6 -18 -6 -24 0 -6 6 -16 5 -25
-3 -14 -10 -14 -10 -3 5 7 9 21 15 30 13 9 -2 22 -4 27 -4z m-888 -24 c6 0 10
-8 8 -18 -3 -12 2 -15 16 -12 11 3 22 9 25 14 3 5 -3 6 -13 3 -14 -5 -15 -4
-4 4 9 6 21 7 31 2 9 -5 22 -5 30 0 8 5 21 5 31 0 9 -5 19 -6 23 -3 4 4 17 8
29 10 19 2 20 1 5 -8 -10 -5 -21 -10 -25 -10 -20 -1 -33 -22 -23 -34 8 -10 8
-15 -1 -21 -8 -4 -9 -3 -5 4 5 8 -1 11 -16 9 -16 -1 -22 3 -20 14 3 20 -24 33
-34 17 -4 -7 -3 -8 4 -4 8 5 12 0 12 -13 0 -12 -5 -21 -11 -21 -5 0 -7 5 -4
10 3 6 3 10 -2 11 -4 0 -16 2 -25 4 -12 2 -15 -2 -11 -13 3 -11 2 -13 -4 -6
-14 18 -46 26 -40 11 3 -8 -1 -14 -9 -14 -7 0 -11 4 -8 8 2 4 -13 6 -33 5 -27
-2 -37 -7 -35 -17 2 -8 0 -10 -5 -6 -4 5 -9 13 -9 18 -1 5 -2 14 -3 20 0 5 -6
7 -11 4 -6 -4 -8 -10 -5 -15 3 -5 0 -12 -6 -16 -7 -4 -9 -3 -5 4 3 6 2 13 -4
17 -5 3 -10 1 -10 -6 0 -10 -3 -10 -11 -2 -6 6 -18 9 -26 6 -13 -5 -13 -2 -5
14 6 11 9 23 7 27 -3 3 -2 3 3 0 4 -3 7 -11 7 -16 0 -6 6 -13 14 -16 9 -3 11
0 6 8 -5 9 -4 11 3 6 7 -4 12 0 13 11 0 16 1 16 9 -2 6 -13 9 -15 9 -5 1 13 2
13 11 0 9 -13 13 -12 26 5 15 19 15 19 12 1 -2 -10 3 -21 10 -23 8 -3 10 2 6
14 -5 14 -4 15 4 4 11 -16 46 -25 36 -10 -3 5 -10 7 -15 4 -5 -4 -9 -1 -9 4 0
14 17 14 25 1 4 -6 11 -7 17 -4 6 4 1 13 -13 21 -17 10 -18 12 -4 7 11 -3 25
-7 32 -7z m1123 -6 c-5 -11 -7 -21 -2 -24 4 -2 1 -2 -6 0 -8 1 -12 -3 -9 -9 2
-7 11 -12 21 -10 9 2 16 -1 16 -7 0 -12 -27 -8 -41 6 -8 8 -6 18 6 37 20 30
30 35 15 7z m-913 -52 c-1 -11 -5 -15 -10 -10 -5 5 -16 7 -23 4 -7 -3 -21 2
-29 11 -9 9 -15 16 -13 17 2 0 11 2 21 4 11 2 21 6 24 9 10 10 32 -15 30 -35z
m-837 21 c0 -5 -5 -10 -11 -10 -5 0 -7 5 -4 10 3 6 8 10 11 10 2 0 4 -4 4 -10z
m1264 -96 c5 -14 4 -15 -9 -4 -17 14 -19 20 -6 20 5 0 12 -7 15 -16z m40 1
c-4 -8 -11 -15 -16 -15 -6 0 -5 6 2 15 7 8 14 15 16 15 2 0 1 -7 -2 -15z m453
-9 c-1 -6 4 -10 11 -8 8 1 11 -2 7 -7 -3 -6 -12 -8 -20 -5 -19 8 -26 31 -10
31 8 0 13 -5 12 -11z m-1257 -16 c0 -5 -5 -10 -11 -10 -5 0 -7 5 -4 10 3 6 8
10 11 10 2 0 4 -4 4 -10z m65 0 c3 -6 -1 -7 -9 -4 -18 7 -21 14 -7 14 6 0 13
-4 16 -10z m40 -20 l20 -25 -22 19 c-13 11 -23 24 -23 29 0 6 1 8 3 6 1 -2 11
-15 22 -29z m15 20 c0 -5 -2 -10 -4 -10 -3 0 -8 5 -11 10 -3 6 -1 10 4 10 6 0
11 -4 11 -10z m73 1 c4 -1 7 -6 7 -12 0 -8 -4 -8 -13 0 -9 7 -17 7 -24 0 -6
-6 -10 -5 -10 5 0 7 7 12 16 11 9 -2 19 -4 24 -4z m1079 -51 c6 0 8 -3 5 -6
-3 -4 -2 -15 3 -25 10 -18 -5 -42 -32 -51 -11 -4 -11 -8 0 -20 14 -18 -1 -35
-30 -35 -14 0 -15 3 -7 14 14 16 23 17 13 1 -4 -7 -3 -8 4 -4 17 10 3 36 -16
29 -9 -3 -6 3 8 13 14 10 28 19 32 19 19 0 26 21 14 44 -9 15 -16 20 -20 12
-4 -6 -2 -11 3 -11 6 0 11 -10 10 -22 0 -13 -3 -17 -6 -11 -3 10 -8 9 -20 -2
-8 -8 -20 -15 -26 -14 -8 0 -8 2 1 6 7 2 17 13 22 24 9 15 7 19 -5 19 -10 0
-13 -5 -9 -12 4 -7 3 -8 -5 -4 -15 10 -5 26 17 26 13 0 13 2 -4 15 -18 14 -18
15 0 9 16 -6 17 -4 7 14 -19 35 -12 39 9 5 11 -18 25 -33 32 -33z m-1135 28
c-3 -8 -6 -5 -6 6 -1 11 2 17 5 13 3 -3 4 -12 1 -19z m-105 5 c-6 -2 -9 -10
-6 -15 4 -7 2 -8 -5 -4 -13 9 -5 26 12 25 9 0 8 -2 -1 -6z m1079 -57 c-9 -11
-9 -15 1 -19 7 -2 9 -8 5 -13 -13 -13 -27 18 -15 33 6 7 13 13 15 13 3 0 0 -6
-6 -14z m-2641 -9 c0 -5 -10 -7 -22 -4 l-23 6 23 -16 c12 -8 22 -21 22 -27 0
-7 -3 -7 -8 -1 -9 13 -56 39 -48 27 3 -5 0 -9 -7 -9 -7 0 -13 8 -13 16 0 12
10 16 38 16 21 0 38 -4 38 -8z m-46 -39 c-5 -7 -2 -9 7 -6 16 6 52 -59 38 -68
-5 -3 -4 -14 2 -26 7 -13 7 -18 0 -14 -5 4 -15 -3 -21 -14 -10 -18 2 -31 13
-12 2 4 2 1 1 -5 -2 -7 2 -13 9 -14 9 0 9 -2 -1 -6 -6 -2 -10 -9 -6 -14 9 -15
-25 -22 -41 -9 -8 7 -15 9 -15 5 0 -4 -7 -2 -14 5 -10 8 -12 18 -7 33 8 20 8
50 1 82 -5 20 0 35 11 35 8 0 8 -4 1 -13 -9 -10 -7 -19 5 -37 9 -13 11 -20 5
-16 -7 4 -12 2 -12 -4 0 -7 6 -10 13 -7 6 2 11 10 9 17 -2 7 5 21 14 31 14 16
15 22 5 32 -10 9 -11 9 -6 -4 3 -9 -1 -21 -9 -28 -13 -11 -15 -8 -11 19 3 26
1 31 -13 26 -13 -5 -13 -3 2 9 24 18 30 19 20 3z m2859 -25 c-6 -15 -19 -17
-27 -4 -7 11 0 18 18 18 8 0 12 -6 9 -14z m-2719 -19 c3 -8 2 -12 -4 -9 -6 3
-10 10 -10 16 0 14 7 11 14 -7z m36 -8 c0 -3 -13 -14 -30 -26 -22 -16 -28 -17
-24 -6 3 9 12 16 20 16 8 0 14 5 14 10 0 6 5 10 10 10 6 0 10 -2 10 -4z m2685
-26 c1 -20 -4 -27 -15 -25 -8 2 -17 4 -19 4 -3 1 0 6 7 13 7 7 12 17 12 22 0
6 -7 0 -16 -13 -13 -18 -14 -25 -4 -31 9 -6 9 -12 0 -30 -12 -23 -8 -36 9 -26
6 4 8 13 5 20 -7 18 12 30 22 15 4 -8 3 -9 -4 -5 -15 9 -15 1 -1 -26 7 -13 7
-18 1 -14 -6 3 -13 2 -16 -3 -3 -5 1 -11 9 -14 8 -4 12 -15 10 -27 -3 -17 0
-21 13 -16 15 5 15 4 -1 -8 -18 -14 -18 -14 0 -19 10 -3 6 -4 -9 -3 -16 1 -34
10 -41 21 -10 12 -16 14 -21 7 -4 -7 -13 -12 -19 -12 -7 0 -6 4 3 10 8 5 10
10 5 10 -6 0 -11 15 -11 34 0 19 4 33 8 30 4 -2 5 -13 3 -23 -4 -23 10 -47 19
-32 4 6 3 11 -2 11 -5 0 -8 16 -7 34 1 21 -3 32 -8 29 -6 -3 -7 -1 -3 5 3 5 0
13 -6 16 -7 3 -3 3 10 0 21 -5 22 -4 11 14 -7 12 -17 18 -23 15 -5 -3 -6 -1
-2 6 4 6 11 9 15 6 5 -2 16 4 25 14 23 26 41 22 41 -9z m-2684 -7 c-11 -5 -11
-7 0 -15 11 -8 11 -9 -1 -5 -8 2 -24 0 -35 -5 -14 -7 -13 -4 5 11 14 11 30 20
35 20 6 0 4 -3 -4 -6z m2624 -183 c3 -6 -1 -7 -9 -4 -18 7 -21 14 -7 14 6 0
13 -4 16 -10z m-2647 -52 c7 -7 8 -17 1 -30 -6 -11 -6 -18 0 -18 5 0 7 -10 3
-22 -4 -16 -2 -19 9 -13 12 7 12 6 1 -7 -9 -12 -10 -18 -2 -23 8 -5 8 -11 -1
-21 -16 -20 -32 -17 -24 4 5 14 4 15 -7 4 -11 -11 -9 -16 7 -30 18 -15 20 -27
18 -82 -2 -36 -3 -77 -3 -93 0 -15 -3 -27 -7 -26 -21 4 -28 -3 -29 -29 l-1
-27 11 25 c6 14 19 26 28 28 16 2 16 0 6 -23 -6 -14 -13 -23 -16 -20 -3 3 -11
0 -19 -6 -7 -6 -13 -8 -13 -3 0 5 -5 2 -11 -6 -8 -12 -9 -11 -7 5 2 11 8 23
13 28 6 4 4 11 -5 17 -13 9 -13 10 0 10 13 0 13 2 0 11 -13 9 -12 10 2 5 10
-3 20 -1 23 4 4 6 1 10 -6 10 -7 0 -4 7 7 15 18 14 18 15 -6 6 -22 -7 -26 -6
-26 9 0 10 3 18 6 18 21 -2 29 4 23 19 -4 11 -3 14 5 9 8 -5 10 -2 6 8 -4 10
-1 16 7 16 11 0 11 2 -1 9 -8 6 -17 8 -21 5 -4 -2 -13 4 -20 14 -13 15 -12 16
4 3 9 -7 17 -10 17 -6 0 5 -8 18 -17 29 -14 16 -14 18 -2 8 22 -16 32 -3 12
16 -10 11 -12 17 -4 20 6 2 8 9 5 14 -5 7 -2 8 6 3 9 -5 10 -2 6 13 -4 11 -2
23 4 27 5 3 10 12 10 18 0 7 -4 6 -10 -3 -5 -8 -10 -10 -11 -5 0 6 -2 21 -5
35 -3 18 -2 21 5 10 5 -8 7 -18 4 -24 -3 -5 -1 -6 5 -2 8 4 8 15 2 31 -10 26
-2 33 18 13z m2642 -32 c0 -3 -4 -8 -10 -11 -5 -3 -10 -1 -10 4 0 6 5 11 10
11 6 0 10 -2 10 -4z m-2843 -31 c0 -8 -4 -12 -9 -9 -5 3 -6 10 -3 15 9 13 12
11 12 -6z m103 6 c0 -5 -6 -14 -14 -20 -12 -10 -14 -9 -11 6 2 10 4 19 4 21 2
6 21 1 21 -7z m2614 -22 c-3 -5 -10 -7 -15 -3 -5 3 -7 10 -3 15 3 5 10 7 15 3
5 -3 7 -10 3 -15z m213 -125 c-3 -3 -12 -4 -19 -1 -8 3 -5 6 6 6 11 1 17 -2
13 -5z m-2754 -31 c-4 -10 -9 -11 -19 -2 -18 15 -18 15 5 15 11 0 17 -5 14
-13z m2602 -3 c3 -5 1 -10 -4 -10 -6 0 -11 5 -11 10 0 6 2 10 4 10 3 0 8 -4
11 -10z m153 -54 c1 -14 -2 -27 -6 -30 -5 -3 -7 8 -6 25 1 16 -2 29 -7 29 -5
0 -9 5 -9 11 0 23 26 -10 28 -35z m9 -51 c0 -8 -6 -16 -14 -19 -11 -4 -11 -1
-3 14 13 24 17 25 17 5z m0 -70 c0 -8 -4 -12 -9 -9 -4 3 -8 9 -8 15 0 5 4 9 8
9 5 0 9 -7 9 -15z m-134 -1070 c-3 -9 -8 -14 -10 -11 -3 3 -2 9 2 15 9 16 15
13 8 -4z m-1363 -909 c0 -2 -7 -7 -16 -10 -8 -3 -12 -2 -9 4 6 10 25 14 25 6z
m-3 -132 c-3 -3 -12 -4 -19 -1 -8 3 -5 6 6 6 11 1 17 -2 13 -5z m7 -36 c-3 -4
-11 -5 -19 -1 -21 7 -19 12 4 10 11 0 18 -5 15 -9z m-24 -23 c0 -8 -2 -15 -4
-15 -2 0 -6 7 -10 15 -3 8 -1 15 4 15 6 0 10 -7 10 -15z m20 -19 c0 -2 -8 -10
-17 -17 -16 -13 -17 -12 -4 4 13 16 21 21 21 13z m0 -36 c0 -5 -8 -10 -17 -10
-15 0 -16 2 -3 10 19 12 20 12 20 0z m-10 -51 c-10 -5 -11 -12 -5 -16 12 -10
16 -55 4 -47 -5 3 -9 1 -9 -5 0 -5 5 -11 12 -13 7 -3 8 -9 3 -19 -13 -20 -17
-51 -6 -45 5 4 8 -2 6 -11 -1 -10 2 -23 6 -29 6 -7 4 -16 -6 -24 -8 -7 -12
-17 -9 -22 4 -6 10 -5 16 3 8 11 9 11 5 -1 -2 -8 -9 -14 -15 -13 -5 1 -13 -4
-16 -12 -3 -9 0 -12 10 -8 7 3 14 0 14 -7 0 -6 5 -8 12 -4 7 4 8 3 4 -5 -4 -6
-11 -9 -16 -6 -4 3 -11 -2 -14 -11 -4 -11 -1 -14 12 -10 12 4 19 1 19 -6 0 -7
-10 -13 -21 -14 -12 0 -30 -4 -41 -8 -18 -7 -18 -7 -2 4 14 9 15 15 7 25 -7 8
-7 15 -1 19 5 4 8 15 6 26 -2 11 -1 20 3 20 4 0 8 9 9 20 1 11 -2 18 -6 16 -4
-3 -8 1 -8 9 0 8 3 15 7 15 4 0 7 7 7 15 0 8 -4 15 -8 15 -6 0 -5 29 1 38 6 7
5 29 -2 44 -5 10 -4 19 3 23 6 4 8 14 5 22 -7 16 13 48 23 38 3 -3 -1 -10 -9
-16z m28 -134 c-3 -3 -9 2 -12 12 -6 14 -5 15 5 6 7 -7 10 -15 7 -18z m-158
-91 c0 -8 -19 -13 -24 -6 -3 5 1 9 9 9 8 0 15 -2 15 -3z m-8 -45 c2 -2 1 -3
-1 -2 -2 2 -9 -2 -16 -7 -8 -7 -12 -5 -12 4 0 12 22 16 29 5z m143 -68 c-3 -6
3 -14 12 -20 10 -6 12 -11 6 -11 -7 0 -13 -7 -13 -15 0 -8 -4 -15 -8 -15 -5 0
-9 -7 -9 -16 0 -14 2 -14 14 2 7 10 13 22 13 28 0 5 3 7 6 4 3 -4 0 -16 -6
-28 -9 -16 -9 -25 -1 -33 6 -6 11 -16 11 -21 0 -6 -4 -5 -9 3 -6 9 -9 -1 -9
-30 -1 -31 5 -47 20 -61 12 -10 17 -18 12 -18 -6 0 -15 5 -22 12 -9 9 -12 9
-12 0 0 -6 7 -15 16 -20 14 -8 13 -10 -2 -23 -12 -9 -15 -10 -10 -1 4 7 0 19
-8 28 -9 8 -16 11 -16 6 0 -5 3 -12 7 -16 11 -11 14 -48 3 -41 -5 3 -10 1 -10
-4 0 -15 11 -14 30 4 15 14 16 13 14 -7 -1 -13 -3 -31 -3 -40 -1 -11 -6 -15
-16 -11 -14 5 -14 8 2 27 18 21 18 21 -3 3 -19 -16 -30 -52 -12 -41 4 3 16 0
25 -6 16 -11 16 -11 1 -6 -10 3 -20 0 -24 -6 -4 -7 -3 -8 4 -4 7 4 12 1 12 -7
0 -8 6 -20 14 -26 12 -10 14 -29 6 -51 -1 -3 -2 -8 -1 -12 0 -5 -4 -8 -10 -8
-6 0 -9 6 -6 14 6 15 -17 16 -30 1 -4 -4 -3 -5 3 -2 6 3 18 -7 27 -22 15 -25
15 -30 2 -35 -17 -6 -20 -32 -6 -40 5 -4 7 4 3 16 -3 14 -2 19 7 14 6 -4 9
-12 6 -17 -4 -5 0 -9 7 -9 8 0 6 -5 -5 -11 -9 -5 -22 -7 -29 -3 -7 4 -8 3 -4
-4 4 -6 -5 -18 -19 -28 -13 -9 -22 -20 -19 -25 3 -5 1 -9 -4 -9 -6 0 -9 39 -9
90 1 61 5 90 13 90 16 0 26 28 13 35 -5 4 -7 11 -4 16 3 5 -2 6 -12 3 -15 -5
-16 -4 -3 5 8 6 24 8 35 5 11 -4 17 -3 12 1 -4 5 -17 9 -29 10 -22 2 -36 39
-19 49 4 3 7 -6 5 -19 -1 -14 1 -23 5 -20 12 7 6 46 -10 56 -10 7 -7 8 11 3
22 -6 23 -5 12 9 -8 9 -11 21 -8 26 4 5 -2 15 -11 21 -16 10 -15 10 4 5 18 -5
22 -3 17 9 -3 8 -13 13 -22 10 -12 -4 -12 -2 2 7 19 12 19 12 0 27 -18 14 -18
14 0 8 14 -5 17 -2 12 9 -3 9 -2 13 4 10 6 -3 10 -13 10 -21 0 -8 5 -14 10
-14 15 0 -6 36 -28 49 -9 6 -13 11 -8 11 5 0 2 8 -5 18 -7 9 -2 7 13 -6 19
-17 28 -20 33 -11 5 7 4 10 -3 5 -15 -9 -34 28 -25 51 6 16 5 17 -13 3 -18
-14 -18 -14 -1 6 9 11 17 24 17 29 0 4 -8 1 -17 -6 -16 -13 -17 -12 -5 3 10
13 10 17 0 21 -7 3 -3 4 9 4 12 -1 19 -5 17 -9 -9 -14 3 -9 16 8 8 8 9 14 4
13 -27 -5 -36 1 -24 16 13 16 35 21 25 6z m-135 -91 c0 -5 -2 -10 -4 -10 -3 0
-8 5 -11 10 -3 6 -1 10 4 10 6 0 11 -4 11 -10z m-5 -59 c-2 -9 -7 -25 -11 -35
-4 -11 -4 -17 2 -14 5 4 10 -7 11 -23 1 -16 -2 -29 -7 -29 -5 0 -6 7 -3 17 4
11 3 14 -5 9 -8 -5 -10 -2 -6 8 4 9 1 16 -6 16 -9 0 -10 3 -1 13 6 8 9 23 7
34 -3 12 1 20 9 20 7 0 12 -7 10 -16z m192 -243 c-3 -8 -6 -5 -6 6 -1 11 2 17
5 13 3 -3 4 -12 1 -19z m-85 -43 c0 -5 -5 -10 -12 -11 -7 -2 -6 -1 1 3 8 4 7
8 -2 15 -11 8 -11 9 -1 6 8 -2 14 -8 14 -13z m93 -75 c3 -5 1 -10 -4 -10 -6 0
-11 5 -11 10 0 6 2 10 4 10 3 0 8 -4 11 -10z m-210 -110 c-3 -5 -12 -10 -18
-10 -7 0 -6 4 3 10 19 12 23 12 15 0z m-14 -63 c-10 -9 -11 -8 -5 6 3 10 9 15
12 12 3 -3 0 -11 -7 -18z m34 -180 c1 -15 0 -25 -3 -22 -3 3 -12 -1 -20 -8
-13 -10 -15 -9 -9 6 4 10 3 27 -3 36 -8 15 -5 18 12 17 17 -1 22 -8 23 -29z
m58 -1072 c-3 -9 -8 -14 -10 -11 -3 3 -2 9 2 15 9 16 15 13 8 -4z"/>
<path d="M4299 6008 c-3 -11 -5 -48 -3 -48 11 0 23 40 14 45 -5 3 -10 5 -11 3z"/>
<path d="M4086 5982 c-3 -5 1 -9 9 -9 8 0 12 4 9 9 -3 4 -7 8 -9 8 -2 0 -6 -4
-9 -8z"/>
<path d="M4370 5970 c-12 -7 -10 -9 7 -7 12 0 19 5 17 9 -6 10 -6 10 -24 -2z"/>
<path d="M2516 5674 c-3 -9 -4 -20 -1 -24 3 -5 -5 -17 -18 -27 -28 -22 -40
-50 -25 -59 7 -4 8 -3 4 4 -4 7 7 25 25 43 17 16 28 33 25 36 -3 3 -1 12 5 19
6 7 6 14 1 18 -6 3 -13 -1 -16 -10z"/>
<path d="M2490 5581 c0 -6 5 -11 11 -11 5 0 8 -4 5 -8 -3 -5 1 -9 8 -9 7 0 13
6 13 14 0 7 -3 11 -5 8 -3 -3 -11 0 -19 6 -9 9 -13 8 -13 0z"/>
<path d="M5310 5556 c0 -5 7 -18 17 -28 10 -12 12 -18 4 -18 -7 0 -9 -4 -6
-10 11 -18 21 -11 21 14 0 14 -3 23 -7 20 -4 -2 -12 4 -18 13 -6 10 -11 14
-11 9z"/>
<path d="M2643 5295 c0 -8 4 -12 9 -9 5 3 6 10 3 15 -9 13 -12 11 -12 -6z"/>
<path d="M2625 5241 c-6 -11 13 -26 22 -17 4 3 0 6 -8 6 -11 0 -11 2 1 10 9 6
10 10 3 10 -6 0 -14 -4 -18 -9z"/>
<path d="M2626 5134 c-11 -8 -16 -14 -10 -14 13 0 39 18 34 24 -3 2 -14 -2
-24 -10z"/>
<path d="M3870 2540 c0 -5 5 -10 11 -10 5 0 7 5 4 10 -3 6 -8 10 -11 10 -2 0
-4 -4 -4 -10z"/>
<path d="M3860 2445 c-7 -9 -8 -15 -2 -15 5 0 12 7 16 15 3 8 4 15 2 15 -2 0
-9 -7 -16 -15z"/>
<path d="M3865 2281 c-3 -5 0 -13 6 -17 7 -4 9 -3 5 4 -3 5 0 13 6 15 9 4 10
6 1 6 -6 1 -14 -3 -18 -8z"/>
<path d="M3890 1967 c0 -8 6 -17 14 -20 9 -4 13 0 12 11 -3 20 -26 29 -26 9z"/>
<path d="M3845 1910 c-6 -10 -5 -11 18 -14 6 -1 11 -7 10 -14 -2 -7 2 -12 7
-12 17 0 11 25 -10 37 -12 8 -21 9 -25 3z"/>
<path d="M3843 1852 c-1 -22 0 -24 9 -8 6 10 6 22 2 26 -5 5 -10 -3 -11 -18z"/>
<path d="M3852 1818 c-7 -7 -12 -16 -12 -21 0 -5 7 -1 16 8 9 9 14 18 12 20
-2 3 -10 -1 -16 -7z"/>
<path d="M2686 6273 c-6 -14 -5 -15 5 -6 7 7 10 15 7 18 -3 3 -9 -2 -12 -12z"/>
<path d="M5492 6036 c1 -14 5 -23 9 -20 7 4 0 44 -7 44 -2 0 -3 -11 -2 -24z"/>
<path d="M5719 6058 c-5 -18 -6 -38 -1 -34 7 8 12 36 6 36 -2 0 -4 -1 -5 -2z"/>
<path d="M5427 6039 c7 -7 15 -10 18 -7 3 3 -2 9 -12 12 -14 6 -15 5 -6 -5z"/>
<path d="M5573 6031 c0 -11 5 -18 9 -15 4 3 5 11 1 19 -7 21 -12 19 -10 -4z"/>
<path d="M5629 6037 c6 -8 7 -18 3 -22 -4 -5 -1 -5 6 -1 10 6 10 11 1 22 -6 8
-14 14 -16 14 -3 0 0 -6 6 -13z"/>
<path d="M6310 6040 c0 -5 5 -10 11 -10 5 0 7 5 4 10 -3 6 -8 10 -11 10 -2 0
-4 -4 -4 -10z"/>
<path d="M5535 6020 c3 -5 8 -10 11 -10 2 0 4 5 4 10 0 6 -5 10 -11 10 -5 0
-7 -4 -4 -10z"/>
<path d="M4560 6010 c-8 -5 -18 -6 -22 -4 -4 3 -8 0 -8 -5 0 -13 10 -14 30 -1
9 5 19 5 26 -1 8 -6 16 -3 25 8 12 16 12 17 -2 6 -9 -8 -19 -9 -25 -3 -5 5
-15 6 -24 0z"/>
<path d="M4416 5998 c3 -4 16 -6 30 -4 13 3 24 0 24 -5 0 -6 5 -7 10 -4 20 13
9 21 -29 21 -22 0 -38 -3 -35 -8z"/>
<path d="M4630 6001 c0 -10 19 -25 25 -20 1 2 -3 10 -11 17 -8 7 -14 8 -14 3z"/>
<path d="M4766 6002 c-3 -5 1 -9 9 -9 8 0 15 4 15 9 0 4 -4 8 -9 8 -6 0 -12
-4 -15 -8z"/>
<path d="M4935 6000 c3 -5 8 -10 11 -10 2 0 4 5 4 10 0 6 -5 10 -11 10 -5 0
-7 -4 -4 -10z"/>
<path d="M4603 5975 c-3 -9 -3 -18 -1 -21 3 -3 8 4 11 16 6 23 -1 27 -10 5z"/>
<path d="M4670 5958 c0 -3 9 -6 20 -5 11 1 20 5 20 9 0 3 -9 6 -20 5 -11 -1
-20 -5 -20 -9z"/>
<path d="M4726 5962 c-2 -4 4 -8 14 -8 10 0 16 4 14 8 -3 4 -9 8 -14 8 -5 0
-11 -4 -14 -8z"/>
<path d="M4775 5960 c3 -5 8 -10 11 -10 2 0 4 5 4 10 0 6 -5 10 -11 10 -5 0
-7 -4 -4 -10z"/>
<path d="M4806 5958 c3 -5 10 -6 15 -3 13 9 11 12 -6 12 -8 0 -12 -4 -9 -9z"/>
<path d="M4990 5959 c0 -5 5 -7 10 -4 6 3 10 8 10 11 0 2 -4 4 -10 4 -5 0 -10
-5 -10 -11z"/>
<path d="M5624 5939 c-3 -6 -15 -9 -25 -6 -21 6 -35 -8 -19 -18 6 -4 8 -9 6
-13 -2 -4 3 -13 11 -21 13 -12 14 -11 9 5 -5 17 -1 19 38 18 24 -1 48 -4 54
-8 6 -3 18 4 28 16 11 15 14 17 11 6 -4 -12 -1 -18 9 -18 9 0 12 5 8 13 -6 8
-3 8 9 -1 9 -8 21 -11 27 -7 5 3 10 2 10 -2 0 -8 23 -9 67 -4 13 1 5 41 -9 41
-5 0 -6 -5 -2 -12 5 -7 3 -8 -7 -3 -7 5 -28 8 -45 7 -18 -2 -35 2 -39 8 -4 7
-13 7 -26 -1 -15 -8 -24 -7 -37 3 -11 9 -14 10 -8 1 4 -8 1 -13 -8 -13 -9 0
-16 5 -16 12 0 6 -6 4 -13 -7 -11 -14 -16 -15 -22 -5 -6 9 -4 11 5 5 9 -5 11
-4 6 3 -9 15 -13 15 -22 1z"/>
<path d="M5887 5943 c-9 -9 -8 -25 2 -42 7 -11 13 -10 36 5 l28 18 -13 -24
c-12 -23 -12 -24 3 -12 9 8 33 15 54 16 21 1 45 6 52 11 9 5 12 4 8 -2 -10
-15 41 -13 53 2 8 9 6 14 -5 19 -9 3 -15 0 -15 -10 0 -8 -4 -13 -10 -9 -5 3
-7 13 -4 23 5 13 4 14 -4 3 -6 -8 -17 -11 -26 -8 -9 4 -16 1 -16 -5 0 -6 -6
-5 -17 3 -11 10 -14 10 -9 2 4 -7 2 -13 -3 -13 -6 0 -11 5 -11 12 0 6 -7 3
-15 -8 -9 -11 -13 -13 -10 -4 4 11 -2 15 -20 15 -14 0 -25 -3 -25 -7 0 -4 -7
-5 -15 -2 -8 4 -12 10 -9 15 6 11 0 12 -9 2z"/>
<path d="M6123 5921 c-11 -17 -8 -18 30 -17 23 1 48 5 56 10 9 6 12 5 8 -1 -4
-6 3 -8 17 -6 13 3 34 0 46 -7 20 -10 21 -10 11 8 -6 11 -8 21 -6 24 2 2 -5 4
-15 5 -11 1 -22 -2 -25 -7 -3 -5 -11 -7 -18 -5 -37 11 -77 13 -77 4 0 -6 5 -7
12 -3 7 5 8 3 3 -6 -6 -10 -10 -10 -20 3 -10 14 -12 14 -22 -2z m152 -1 c3 -6
-1 -7 -9 -4 -18 7 -21 14 -7 14 6 0 13 -4 16 -10z"/>
<path d="M6305 5929 c-12 -18 4 -23 78 -23 62 -1 73 2 73 16 0 12 -4 14 -17 7
-24 -12 -32 -11 -23 4 6 9 4 9 -8 -1 -13 -10 -18 -10 -24 -1 -5 9 -11 7 -21
-6 -7 -11 -13 -13 -13 -6 0 8 -7 10 -21 6 -15 -5 -19 -4 -15 4 4 6 5 11 2 11
-3 0 -8 -5 -11 -11z"/>
<path d="M6475 5927 c-4 -10 -5 -21 -1 -24 10 -10 18 4 13 24 -4 17 -4 17 -12
0z"/>
<path d="M6688 5926 c11 -21 49 -30 49 -11 0 6 -6 12 -14 12 -7 0 -13 -5 -13
-11 0 -5 -7 -1 -16 10 -15 19 -15 19 -6 0z"/>
<path d="M6797 5933 c-4 -3 -7 -13 -7 -22 1 -13 3 -13 11 2 11 19 8 33 -4 20z"/>
<path d="M6505 5922 c-2 -3 -2 -8 1 -13 5 -9 34 -1 34 10 0 8 -27 10 -35 3z"/>
<path d="M6553 5920 c3 -16 21 -14 25 2 3 10 2 10 -6 -1 -7 -9 -11 -10 -15 -2
-4 7 -5 8 -4 1z"/>
<path d="M6593 5915 c0 -6 19 -11 44 -11 24 1 43 2 43 3 0 1 -10 7 -21 14 -15
8 -19 8 -15 0 4 -6 2 -11 -3 -11 -6 0 -11 4 -11 9 0 6 -8 9 -18 8 -10 0 -19
-6 -19 -12z"/>
<path d="M6753 5920 c3 -16 21 -14 25 2 3 10 2 10 -6 -1 -7 -9 -11 -10 -15 -2
-4 7 -5 8 -4 1z"/>
<path d="M6825 5914 c-10 -8 -14 -14 -8 -14 7 0 14 4 18 9 3 5 18 7 32 5 15
-3 25 -3 22 1 -13 13 -46 12 -64 -1z"/>
<path d="M6900 5918 c0 -4 4 -8 9 -8 6 0 12 4 15 8 3 5 -1 9 -9 9 -8 0 -15 -4
-15 -9z"/>
<path d="M6936 5913 c-6 -14 -5 -15 5 -6 7 7 10 15 7 18 -3 3 -9 -2 -12 -12z"/>
<path d="M7016 5922 c-3 -5 1 -9 9 -9 8 0 12 4 9 9 -3 4 -7 8 -9 8 -2 0 -6 -4
-9 -8z"/>
<path d="M7055 5920 c-2 -3 9 -6 25 -6 17 0 27 2 25 5 -8 7 -45 9 -50 1z"/>
<path d="M7250 5920 c0 -5 5 -10 11 -10 5 0 7 5 4 10 -3 6 -8 10 -11 10 -2 0
-4 -4 -4 -10z"/>
<path d="M4903 5876 c-9 -10 -9 -16 0 -26 9 -10 7 -11 -10 -5 -13 3 -23 2 -23
-3 0 -15 34 -10 62 9 14 11 31 19 37 19 23 0 10 15 -15 16 -17 1 -24 -2 -20
-11 2 -7 -2 -16 -10 -19 -12 -4 -14 -1 -9 14 7 23 5 25 -12 6z"/>
<path d="M4996 5874 c1 -6 -2 -16 -8 -22 -6 -6 -6 -12 1 -16 6 -4 11 -4 11 1
0 4 5 1 10 -7 8 -12 10 -12 10 -1 0 11 3 11 18 0 9 -7 14 -9 10 -5 -4 5 -2 16
5 25 10 13 10 14 -3 5 -19 -13 -41 -12 -37 1 1 6 5 9 9 8 4 -2 5 4 1 13 -4 11
-8 12 -13 4 -4 -7 -10 -8 -12 -4 -3 5 -4 4 -2 -2z"/>
<path d="M5031 5886 c2 -2 14 -9 26 -15 18 -9 22 -9 18 2 -3 7 -15 13 -26 14
-12 1 -20 1 -18 -1z"/>
<path d="M5630 5876 c7 -7 13 -7 20 0 6 6 3 10 -10 10 -13 0 -16 -4 -10 -10z"/>
<path d="M4443 5853 c-17 -6 -17 -30 0 -30 7 0 13 9 13 19 0 10 0 18 -1 17 0
0 -6 -3 -12 -6z"/>
<path d="M4543 5844 c-4 -12 -7 -13 -14 -3 -4 8 -10 11 -14 8 -3 -3 5 -14 17
-25 12 -10 18 -13 13 -5 -6 11 -4 13 8 8 10 -4 17 -2 17 5 0 7 4 7 13 0 16
-13 42 1 32 17 -5 9 -10 9 -20 1 -9 -8 -15 -8 -20 0 -9 15 -25 12 -32 -6z"/>
<path d="M4407 5830 c3 -11 7 -20 9 -20 2 0 4 9 4 20 0 11 -4 20 -9 20 -5 0
-7 -9 -4 -20z"/>
<path d="M4771 5834 c0 -11 3 -14 6 -6 3 7 2 16 -1 19 -3 4 -6 -2 -5 -13z"/>
<path d="M4950 5839 c0 -5 5 -7 10 -4 6 3 10 8 10 11 0 2 -4 4 -10 4 -5 0 -10
-5 -10 -11z"/>
<path d="M5836 5838 c3 -5 10 -6 15 -3 13 9 11 12 -6 12 -8 0 -12 -4 -9 -9z"/>
<path d="M2646 5590 c3 -8 7 -20 7 -27 0 -7 5 -9 10 -6 6 3 7 1 3 -6 -4 -6
-12 -9 -17 -5 -5 3 -7 10 -4 15 4 5 1 9 -4 9 -14 0 -14 -6 -1 -30 15 -28 39
-15 34 18 -3 14 -7 29 -10 33 -2 4 4 10 13 12 10 3 6 4 -10 4 -21 -1 -26 -5
-21 -17z"/>
<path d="M5136 5585 c-3 -8 -1 -15 4 -15 13 0 22 18 11 24 -5 3 -11 -1 -15 -9z"/>
<path d="M2473 5527 c14 -11 15 -16 5 -20 -9 -4 -9 -6 -1 -6 23 -2 23 18 1 29
-21 10 -22 10 -5 -3z"/>
<path d="M5146 5524 c16 -13 16 -15 2 -10 -15 4 -16 2 -6 -13 15 -24 37 -23
32 2 -4 20 -21 37 -38 37 -6 0 -1 -7 10 -16z"/>
<path d="M2511 5446 c-9 -11 -8 -15 4 -20 9 -3 13 -10 10 -16 -4 -6 -11 -8
-16 -5 -5 4 -9 1 -9 -4 0 -12 30 -15 31 -3 0 4 2 15 4 25 2 10 -1 14 -8 10 -6
-4 -8 0 -4 10 8 21 3 22 -12 3z"/>
<path d="M5307 5430 c-3 -11 -3 -20 -1 -20 2 0 8 9 14 20 6 11 7 20 2 20 -6 0
-12 -9 -15 -20z"/>
<path d="M2473 5424 c3 -4 2 -16 -4 -27 -9 -15 -8 -18 2 -12 9 6 10 3 5 -11
-4 -10 -4 -15 1 -11 12 12 12 67 0 67 -6 0 -7 -3 -4 -6z"/>
<path d="M5327 5339 c7 -7 15 -10 18 -7 3 3 -2 9 -12 12 -14 6 -15 5 -6 -5z"/>
<path d="M5285 5320 c6 -30 16 -40 12 -12 -2 12 -6 24 -10 28 -3 4 -4 -4 -2
-16z"/>
<path d="M2457 5309 c-10 -11 -22 -17 -26 -14 -5 2 -11 -6 -13 -20 -6 -28 -4
-29 23 -14 11 5 16 15 13 21 -5 7 -2 9 9 5 12 -4 14 -2 10 10 -5 12 -3 14 7 8
9 -6 11 -4 5 5 -6 10 -4 12 9 7 10 -4 15 -3 11 3 -9 15 -28 11 -48 -11z"/>
<path d="M5310 5320 c0 -6 7 -10 15 -10 8 0 15 2 15 4 0 2 -7 6 -15 10 -8 3
-15 1 -15 -4z"/>
<path d="M5283 5265 c0 -8 4 -12 9 -9 5 3 6 10 3 15 -9 13 -12 11 -12 -6z"/>
<path d="M2460 5258 c0 -4 -7 -8 -15 -8 -8 0 -19 -9 -25 -20 -7 -13 -7 -20 -1
-20 7 0 7 -9 1 -25 -8 -20 -6 -27 6 -32 20 -7 37 10 32 33 -2 11 3 27 11 36
12 14 18 15 30 5 11 -7 10 -4 -2 10 -14 16 -15 22 -5 26 7 3 3 4 -9 4 -13 -1
-23 -5 -23 -9z m15 -18 c-10 -16 -45 -32 -45 -20 0 5 7 10 15 10 8 0 15 5 15
10 0 6 5 10 11 10 5 0 7 -4 4 -10z m-25 -61 c0 -6 -4 -7 -10 -4 -5 3 -10 11
-10 16 0 6 5 7 10 4 6 -3 10 -11 10 -16z"/>
<path d="M2510 5266 c0 -2 7 -6 15 -10 8 -3 15 -1 15 4 0 6 -7 10 -15 10 -8 0
-15 -2 -15 -4z"/>
<path d="M5283 5194 c0 -7 6 -10 14 -7 7 3 13 8 13 12 0 4 -6 8 -13 8 -8 0
-14 -6 -14 -13z"/>
<path d="M2470 5180 c0 -5 5 -10 10 -10 6 0 10 5 10 10 0 6 -4 10 -10 10 -5 0
-10 -4 -10 -10z"/>
<path d="M5290 5166 c0 -2 7 -7 16 -10 8 -3 12 -2 9 4 -6 10 -25 14 -25 6z"/>
<path d="M2440 5141 c-8 -6 -17 -8 -21 -5 -4 2 -2 -12 4 -31 8 -26 15 -34 26
-30 13 5 13 4 4 -6 -9 -9 -16 -9 -26 -1 -10 9 -12 5 -9 -22 2 -20 9 -33 18
-33 8 0 14 4 14 8 0 5 6 6 14 3 8 -3 17 -1 21 5 3 7 0 8 -9 5 -12 -5 -15 2
-14 30 1 26 4 33 13 26 8 -7 12 -5 12 4 0 14 -14 16 -34 3 -6 -4 -15 -2 -19 4
-5 8 -3 9 6 4 10 -6 12 -4 7 8 -4 12 -1 15 14 12 17 -4 19 -2 9 10 -7 8 -13
15 -14 15 0 0 -8 -4 -16 -9z m10 -101 c0 -5 -4 -10 -10 -10 -5 0 -10 5 -10 10
0 6 5 10 10 10 6 0 10 -4 10 -10z"/>
<path d="M2517 5121 c-4 -17 -3 -21 5 -13 5 5 8 16 6 23 -3 8 -7 3 -11 -10z"/>
<path d="M5316 5113 c-6 -14 -5 -15 5 -6 7 7 10 15 7 18 -3 3 -9 -2 -12 -12z"/>
<path d="M5197 5103 c-10 -9 -9 -33 1 -33 4 0 8 9 9 20 2 21 0 24 -10 13z"/>
<path d="M5137 5061 c-10 -14 -10 -14 4 -4 9 7 18 10 21 7 3 -3 8 -1 12 4 9
16 -24 9 -37 -7z"/>
<path d="M5296 5062 c-2 -4 -1 -14 4 -22 7 -11 9 -9 7 8 -1 24 -3 26 -11 14z"/>
<path d="M5180 5051 c-8 -6 -17 -8 -20 -6 -3 2 -7 -6 -7 -18 -2 -20 -1 -21 11
-5 7 10 15 15 18 12 3 -2 8 2 11 11 7 17 7 18 -13 6z"/>
<path d="M2521 5004 c0 -11 3 -14 6 -6 3 7 2 16 -1 19 -3 4 -6 -2 -5 -13z"/>
<path d="M2430 4997 c0 -4 -5 -5 -11 -1 -8 5 -8 1 0 -14 8 -14 8 -23 1 -27 -7
-4 -7 -11 -2 -18 5 -7 8 -32 7 -57 -2 -25 1 -53 6 -62 6 -11 6 -18 1 -18 -5 0
-9 -30 -8 -67 1 -50 5 -68 16 -68 7 0 15 6 18 13 2 6 -5 12 -15 12 -15 1 -16
2 -3 10 19 11 20 76 1 72 -7 -1 -11 3 -8 10 2 7 13 12 23 10 18 -3 18 -3 -1
12 -15 12 -16 15 -3 10 13 -4 16 0 15 15 -1 12 -9 24 -19 27 -10 3 -16 10 -12
15 4 7 10 6 18 0 9 -7 12 0 11 29 0 35 -2 39 -20 34 -17 -6 -16 -3 5 14 17 15
20 21 10 22 -13 0 -13 1 0 10 13 9 13 10 0 10 -13 0 -13 1 0 10 12 7 10 9 -8
7 -12 0 -22 -5 -22 -10z m16 -22 c-1 -8 -8 -20 -14 -25 -8 -7 -9 -7 -3 1 5 6
7 18 4 25 -3 8 -1 14 5 14 6 0 9 -7 8 -15z m10 -79 c1 -7 -4 -13 -11 -13 -7 0
-11 7 -10 16 2 9 4 18 4 20 2 8 15 -10 17 -23z m-3 -60 c4 -10 1 -13 -9 -9
-15 6 -19 23 -5 23 5 0 11 -7 14 -14z m-6 -81 c0 -8 -4 -12 -9 -9 -5 3 -6 10
-3 15 9 13 12 11 12 -6z m-2 -35 c3 -5 1 -10 -4 -10 -6 0 -11 5 -11 10 0 6 2
10 4 10 3 0 8 -4 11 -10z"/>
<path d="M5184 4986 c-19 -15 -19 -15 2 -13 11 0 21 7 21 14 0 16 1 16 -23 -1z"/>
<path d="M5276 4971 c-3 -5 1 -11 9 -14 9 -4 12 -1 8 9 -6 16 -10 17 -17 5z"/>
<path d="M2516 4957 c3 -10 9 -15 12 -12 3 3 0 11 -7 18 -10 9 -11 8 -5 -6z"/>
<path d="M5140 4960 c0 -5 5 -10 10 -10 6 0 10 5 10 10 0 6 -4 10 -10 10 -5 0
-10 -4 -10 -10z"/>
<path d="M5183 4953 c-10 -3 -10 -9 0 -24 6 -10 15 -19 20 -19 4 0 6 4 2 9 -3
5 -1 12 5 16 6 4 8 11 5 16 -7 10 -13 10 -32 2z m27 -7 c0 -3 -4 -8 -10 -11
-5 -3 -10 -1 -10 4 0 6 5 11 10 11 6 0 10 -2 10 -4z"/>
<path d="M5143 4914 c0 -9 4 -11 12 -4 7 5 14 9 16 7 2 -1 3 0 1 2 -7 11 -29
7 -29 -5z"/>
<path d="M5320 4920 c8 -5 20 -10 25 -10 6 0 3 5 -5 10 -8 5 -19 10 -25 10 -5
0 -3 -5 5 -10z"/>
<path d="M2633 4903 c0 -8 6 -9 19 -2 10 5 18 11 18 12 0 2 -8 3 -18 3 -10 0
-19 -6 -19 -13z"/>
<path d="M5160 4891 c0 -7 -4 -9 -10 -6 -5 3 -10 1 -10 -4 0 -6 4 -11 9 -11
13 0 25 20 17 27 -3 4 -6 1 -6 -6z"/>
<path d="M2650 4876 c0 -8 4 -17 8 -20 4 -2 8 4 8 15 0 10 -4 19 -8 19 -4 0
-8 -6 -8 -14z"/>
<path d="M2633 4852 c0 -12 5 -22 9 -22 11 0 10 12 -2 30 -7 12 -9 10 -7 -8z"/>
<path d="M5154 4840 c0 -13 4 -16 10 -10 7 7 7 13 0 20 -6 6 -10 3 -10 -10z"/>
<path d="M5184 4848 c-4 -5 -3 -12 0 -15 3 -4 6 -1 6 6 0 7 4 9 10 6 6 -4 4
-16 -6 -31 -16 -23 -16 -24 2 -18 18 5 18 5 0 -10 -11 -9 -14 -16 -7 -16 7 0
9 -5 5 -12 -5 -7 -3 -8 5 -4 7 5 10 11 7 14 -3 3 -1 11 5 18 7 8 7 14 -1 19
-6 3 -7 12 -3 18 13 20 11 34 -4 34 -7 0 -16 -4 -19 -9z"/>
<path d="M2505 4840 c-3 -6 1 -7 9 -4 18 7 21 14 7 14 -6 0 -13 -4 -16 -10z"/>
<path d="M2654 4819 c-3 -6 -2 -15 4 -21 6 -6 12 -6 17 3 6 8 4 10 -5 4 -10
-6 -12 -4 -7 8 7 19 2 23 -9 6z"/>
<path d="M5335 4820 c3 -5 8 -10 11 -10 2 0 4 5 4 10 0 6 -5 10 -11 10 -5 0
-7 -4 -4 -10z"/>
<path d="M5154 4796 c1 -8 5 -18 8 -22 4 -3 5 1 4 10 -1 8 -5 18 -8 22 -4 3
-5 -1 -4 -10z"/>
<path d="M2649 4763 c-13 -16 -12 -17 4 -4 9 7 17 15 17 17 0 8 -8 3 -21 -13z"/>
<path d="M2473 4755 c0 -8 4 -12 9 -9 5 3 6 10 3 15 -9 13 -12 11 -12 -6z"/>
<path d="M5140 4760 c0 -6 7 -10 15 -10 8 0 15 2 15 4 0 2 -7 6 -15 10 -8 3
-15 1 -15 -4z"/>
<path d="M2470 4696 c0 -2 8 -10 18 -17 15 -13 16 -12 3 4 -13 16 -21 21 -21
13z"/>
<path d="M5145 4680 c-3 -6 1 -7 9 -4 18 7 21 14 7 14 -6 0 -13 -4 -16 -10z"/>
<path d="M5384 4621 c0 -28 2 -48 6 -46 7 4 5 83 -2 90 -2 3 -5 -17 -4 -44z"/>
<path d="M2420 4643 c0 -1 8 -7 18 -12 14 -7 19 -6 19 4 0 7 -9 13 -19 12 -10
-1 -18 -2 -18 -4z"/>
<path d="M5307 4639 c7 -7 15 -10 18 -7 3 3 -2 9 -12 12 -14 6 -15 5 -6 -5z"/>
<path d="M2425 4603 c10 -19 11 -31 4 -39 -14 -17 9 -30 24 -15 9 9 7 11 -8 6
-17 -6 -16 -3 5 15 19 16 20 20 6 16 -13 -4 -17 -2 -13 7 3 7 -3 19 -13 25
-17 10 -17 9 -5 -15z"/>
<path d="M5150 4621 c0 -6 4 -13 10 -16 6 -3 7 1 4 9 -7 18 -14 21 -14 7z"/>
<path d="M5205 4620 c3 -5 8 -10 11 -10 2 0 4 5 4 10 0 6 -5 10 -11 10 -5 0
-7 -4 -4 -10z"/>
<path d="M5340 4606 c0 -2 7 -9 15 -16 9 -7 15 -8 15 -2 0 5 -7 12 -15 16 -8
3 -15 4 -15 2z"/>
<path d="M5150 4580 c0 -5 5 -10 11 -10 5 0 7 5 4 10 -3 6 -8 10 -11 10 -2 0
-4 -4 -4 -10z"/>
<path d="M2603 4563 c0 -9 4 -10 14 -2 7 6 13 12 13 14 0 1 -6 2 -13 2 -8 0
-14 -6 -14 -14z"/>
<path d="M5360 4560 c12 -8 12 -10 1 -10 -8 0 -12 -2 -9 -5 3 -3 13 -2 22 1
14 5 15 9 4 15 -7 5 -17 9 -23 9 -5 0 -3 -5 5 -10z"/>
<path d="M2650 4539 c0 -5 5 -7 10 -4 6 3 10 8 10 11 0 2 -4 4 -10 4 -5 0 -10
-5 -10 -11z"/>
<path d="M5383 4534 c-7 -3 -9 -13 -6 -22 6 -14 4 -15 -8 -5 -13 10 -16 10
-16 -1 0 -21 29 -12 38 12 5 12 7 22 6 21 -1 0 -7 -3 -14 -5z"/>
<path d="M2421 4525 c0 -5 3 -15 7 -22 5 -9 12 -6 21 10 13 20 13 21 -1 9 -13
-10 -17 -10 -21 0 -3 7 -6 9 -6 3z"/>
<path d="M5150 4500 c0 -5 5 -10 11 -10 5 0 7 5 4 10 -3 6 -8 10 -11 10 -2 0
-4 -4 -4 -10z"/>
<path d="M5188 4498 c5 -5 16 -8 23 -6 8 3 3 7 -10 11 -17 4 -21 3 -13 -5z"/>
<path d="M2598 4493 c7 -3 16 -2 19 1 4 3 -2 6 -13 5 -11 0 -14 -3 -6 -6z"/>
<path d="M2605 4460 c3 -5 8 -10 11 -10 2 0 4 5 4 10 0 6 -5 10 -11 10 -5 0
-7 -4 -4 -10z"/>
<path d="M2650 4459 c0 -5 5 -7 10 -4 6 3 10 8 10 11 0 2 -4 4 -10 4 -5 0 -10
-5 -10 -11z"/>
<path d="M5371 4452 c-8 -15 -7 -23 4 -32 11 -9 15 -9 15 -1 0 6 -5 11 -11 11
-8 0 -7 5 1 15 7 9 10 18 7 21 -3 3 -10 -3 -16 -14z"/>
<path d="M5197 4400 c3 -11 9 -22 13 -25 5 -3 6 4 3 15 -3 11 -9 22 -13 25 -5
3 -6 -4 -3 -15z"/>
<path d="M2435 4400 c-3 -5 -2 -10 4 -10 5 0 13 5 16 10 3 6 2 10 -4 10 -5 0
-13 -4 -16 -10z"/>
<path d="M2635 4379 c-3 -4 2 -6 10 -5 21 3 28 13 10 13 -9 0 -18 -4 -20 -8z"/>
<path d="M2423 4358 c1 -15 6 -23 11 -18 4 4 4 16 -2 26 -9 16 -10 14 -9 -8z"/>
<path d="M5375 4340 c3 -5 8 -10 11 -10 2 0 4 5 4 10 0 6 -5 10 -11 10 -5 0
-7 -4 -4 -10z"/>
<path d="M2610 4319 c0 -5 5 -7 10 -4 6 3 10 8 10 11 0 2 -4 4 -10 4 -5 0 -10
-5 -10 -11z"/>
<path d="M5195 4291 c-3 -5 -2 -12 3 -15 5 -3 9 1 9 9 0 17 -3 19 -12 6z"/>
<path d="M5366 4244 c-15 -14 -14 -34 1 -34 4 0 3 3 0 7 -4 3 0 15 10 25 20
22 11 24 -11 2z"/>
<path d="M5155 4191 c-3 -5 -2 -12 3 -15 5 -3 9 1 9 9 0 17 -3 19 -12 6z"/>
<path d="M2436 4141 c-3 -5 2 -15 12 -22 15 -13 16 -12 4 3 -10 13 -10 17 0
21 9 4 9 6 1 6 -6 1 -14 -3 -17 -8z"/>
<path d="M5355 4121 c-3 -5 -2 -12 3 -15 5 -3 9 1 9 9 0 17 -3 19 -12 6z"/>
<path d="M2451 4084 c0 -11 3 -14 6 -6 3 7 2 16 -1 19 -3 4 -6 -2 -5 -13z"/>
<path d="M5355 4051 c-3 -5 -2 -12 3 -15 5 -3 9 1 9 9 0 17 -3 19 -12 6z"/>
<path d="M5196 3967 c3 -10 9 -15 12 -12 3 3 0 11 -7 18 -10 9 -11 8 -5 -6z"/>
<path d="M2430 3896 c0 -2 8 -10 18 -17 15 -13 16 -12 3 4 -13 16 -21 21 -21
13z"/>
<path d="M2590 3880 c-12 -7 -10 -9 7 -7 12 0 19 5 17 9 -6 10 -6 10 -24 -2z"/>
<path d="M5214 3778 c-5 -7 -3 -8 6 -3 10 6 12 4 7 -8 -3 -9 0 -23 8 -31 20
-19 19 -27 -1 -19 -14 5 -15 3 -7 -11 6 -10 7 -35 3 -56 -4 -21 -3 -45 1 -53
6 -10 4 -17 -7 -21 -13 -5 -14 -9 -4 -21 7 -8 10 -21 7 -30 -4 -8 -2 -17 4
-20 5 -4 7 -11 4 -16 -4 -5 0 -9 7 -10 7 0 4 -4 -7 -9 -11 -5 -14 -9 -6 -9 11
-1 11 -4 0 -18 -8 -9 -9 -14 -3 -10 10 6 12 -49 4 -88 -1 -5 -2 -12 0 -15 8
-22 7 -59 -2 -54 -6 4 -6 -1 1 -14 8 -14 8 -23 1 -27 -6 -4 -7 -12 -3 -18 11
-15 10 -68 -1 -86 -7 -10 -6 -12 4 -6 10 6 12 4 7 -8 -3 -10 -2 -17 3 -17 8 0
9 24 11 153 0 23 4 35 11 31 7 -4 7 0 1 12 -6 11 -9 35 -8 54 1 19 -3 41 -8
48 -7 8 -4 12 9 13 11 0 14 3 7 6 -7 2 -13 16 -13 29 0 18 4 23 13 18 7 -5 7
-1 -2 10 -13 15 -13 19 0 27 8 5 10 9 4 9 -14 0 -16 50 -3 74 5 10 6 16 1 13
-4 -3 -15 2 -23 11 -13 14 -12 15 4 9 13 -5 17 -3 13 7 -3 7 0 19 6 26 9 10 8
12 -6 7 -15 -6 -16 -4 -5 16 14 26 18 57 7 57 -4 0 -10 7 -13 16 -3 8 -2 13 3
10 5 -3 11 0 14 8 9 23 -36 36 -49 14z m30 -213 c-4 -8 -11 -12 -16 -9 -6 4
-5 10 3 15 19 12 19 11 13 -6z"/>
<path d="M5350 3576 c0 -2 8 -10 18 -17 15 -13 16 -12 3 4 -13 16 -21 21 -21
13z"/>
<path d="M2553 3555 c0 -8 4 -12 9 -9 4 3 8 9 8 15 0 5 -4 9 -8 9 -5 0 -9 -7
-9 -15z"/>
<path d="M2559 3375 c-5 -20 -4 -32 4 -42 6 -9 5 -13 -4 -13 -12 0 -12 -2 0
-9 9 -6 10 -11 2 -15 -6 -4 -11 -13 -11 -19 0 -7 4 -6 10 3 8 12 10 9 10 -13
0 -20 -4 -26 -12 -21 -9 5 -9 2 1 -9 11 -14 11 -17 0 -17 -11 0 -11 -2 0 -9
11 -7 12 -13 3 -23 -9 -11 -9 -17 1 -27 9 -9 9 -14 -2 -20 -11 -7 -11 -9 0
-13 11 -4 12 -8 2 -20 -10 -12 -10 -19 1 -34 8 -10 18 -16 22 -11 4 4 2 7 -4
7 -7 0 -12 5 -12 11 0 5 6 7 13 3 9 -5 9 -4 0 6 -8 8 -9 19 -3 30 9 18 8 45
-3 56 -3 4 -1 16 5 27 8 16 8 22 -1 25 -6 2 -8 9 -4 15 13 21 9 137 -4 137 -7
0 -14 -2 -14 -5z"/>
<path d="M5230 3078 c0 -4 4 -8 9 -8 6 0 12 4 15 8 3 5 -1 9 -9 9 -8 0 -15 -4
-15 -9z"/>
<path d="M2558 3044 c8 -14 8 -24 1 -31 -8 -8 -7 -13 2 -18 7 -5 10 -4 5 3 -3
6 0 14 7 19 12 6 10 12 -6 28 -20 20 -20 20 -9 -1z"/>
<path d="M5235 3031 c1 -14 -3 -31 -7 -38 -6 -8 -3 -10 9 -8 10 2 20 4 23 4 2
1 -1 6 -7 12 -7 7 -8 20 -3 34 6 15 4 22 -4 22 -6 0 -11 -12 -11 -26z"/>
<path d="M2572 2977 c-7 -8 -9 -17 -5 -20 3 -4 0 -13 -6 -21 -8 -9 -8 -16 -2
-20 12 -8 18 2 17 29 -1 11 3 23 9 27 5 4 7 10 4 13 -4 3 -11 -1 -17 -8z"/>
<path d="M5231 2954 c0 -11 3 -14 6 -6 3 7 2 16 -1 19 -3 4 -6 -2 -5 -13z"/>
<path d="M5242 2931 c-11 -7 -11 -9 0 -14 9 -3 15 1 15 9 0 8 -1 14 -1 14 -1
0 -7 -4 -14 -9z"/>
<path d="M2570 2895 c-7 -8 -9 -15 -5 -15 4 0 3 -6 -3 -13 -8 -10 -5 -16 11
-27 20 -12 21 -12 9 2 -14 17 -13 39 3 50 5 4 7 10 4 13 -4 3 -12 -1 -19 -10z"/>
<path d="M5235 2830 c-3 -6 1 -7 9 -4 18 7 21 14 7 14 -6 0 -13 -4 -16 -10z"/>
<path d="M2563 2811 c0 -11 5 -18 9 -15 4 3 5 11 1 19 -7 21 -12 19 -10 -4z"/>
<path d="M2575 2779 c-4 -6 -5 -12 -2 -15 2 -3 7 2 10 11 7 17 1 20 -8 4z"/>
<path d="M5230 2760 c-12 -7 -10 -9 7 -7 12 0 19 5 17 9 -6 10 -6 10 -24 -2z"/>
<path d="M2572 2731 c7 -9 13 -18 15 -20 1 -2 1 5 0 16 0 11 -7 20 -14 20 -10
0 -10 -4 -1 -16z"/>
<path d="M5237 2720 c-3 -11 -1 -23 4 -26 6 -4 6 -11 -1 -19 -8 -10 -8 -15 2
-21 7 -4 10 -4 6 1 -4 4 -3 14 3 21 6 7 6 14 0 18 -5 3 -7 15 -4 26 3 11 3 20
0 20 -2 0 -7 -9 -10 -20z"/>
<path d="M2555 2700 c-3 -5 -1 -10 4 -10 6 0 11 5 11 10 0 6 -2 10 -4 10 -3 0
-8 -4 -11 -10z"/>
<path d="M2571 2644 c0 -11 3 -14 6 -6 3 7 2 16 -1 19 -3 4 -6 -2 -5 -13z"/>
<path d="M2572 2600 c0 -14 2 -19 5 -12 2 6 2 18 0 25 -3 6 -5 1 -5 -13z"/>
<path d="M5233 2605 c0 -8 4 -12 9 -9 5 3 6 10 3 15 -9 13 -12 11 -12 -6z"/>
<path d="M2573 2555 c0 -8 4 -12 9 -9 5 3 6 10 3 15 -9 13 -12 11 -12 -6z"/>
<path d="M2573 2515 c0 -8 4 -12 9 -9 5 3 6 10 3 15 -9 13 -12 11 -12 -6z"/>
<path d="M2562 2360 c-9 -15 -9 -21 1 -26 6 -4 9 -4 5 1 -4 4 -3 14 4 22 6 7
9 15 7 18 -3 2 -10 -4 -17 -15z"/>
<path d="M5234 2354 c1 -8 4 -15 7 -16 2 -2 3 -1 2 1 -2 2 2 9 7 16 7 8 5 12
-4 12 -8 0 -13 -6 -12 -13z"/>
<path d="M5235 2209 c-4 -6 -5 -12 -2 -15 2 -3 7 2 10 11 7 17 1 20 -8 4z"/>
<path d="M3696 2043 c-4 -4 4 -13 16 -20 l23 -12 -23 -1 c-13 0 -20 -4 -17
-10 4 -6 11 -7 17 -4 7 4 7 0 0 -12 -5 -11 -7 -25 -4 -33 3 -8 0 -11 -7 -7 -6
4 -11 2 -11 -3 0 -6 5 -11 11 -11 5 0 7 -4 4 -10 -3 -5 -1 -10 4 -10 6 0 11 5
11 11 0 5 4 8 9 4 5 -3 12 -1 15 4 4 5 2 12 -3 16 -6 3 -9 29 -7 58 2 29 1 46
-1 39 -4 -9 -9 -10 -17 -3 -7 6 -16 8 -20 4z m38 -101 c3 -5 -1 -9 -9 -9 -8 0
-12 4 -9 9 3 4 7 8 9 8 2 0 6 -4 9 -8z"/>
<path d="M3925 1790 c-4 -6 -10 -8 -15 -5 -5 3 -12 0 -16 -6 -5 -8 -3 -9 6 -4
10 6 12 4 7 -9 -4 -10 -3 -15 3 -11 6 3 10 2 10 -4 0 -19 -19 -21 -29 -4 -6
10 -11 13 -11 6 0 -6 5 -15 10 -18 6 -4 8 -11 5 -16 -4 -5 -2 -9 4 -9 5 0 11
4 13 9 2 5 12 3 23 -6 16 -12 16 -14 3 -10 -10 3 -20 2 -23 -4 -4 -5 -11 -7
-16 -4 -5 3 -6 -1 -2 -10 4 -12 8 -13 13 -5 22 35 48 -24 28 -62 -5 -11 -5
-25 2 -37 12 -23 1 -34 -20 -20 -10 6 -11 9 -2 9 6 0 12 5 12 10 0 6 -8 5 -20
-2 -18 -12 -18 -13 -2 -22 26 -14 26 -14 12 -31 -17 -21 -4 -19 18 3 14 14 17
36 18 114 0 71 -3 95 -12 91 -8 -3 -11 7 -9 31 2 38 0 43 -10 26z"/>
<path d="M3940 1760 c0 -5 5 -10 10 -10 6 0 10 5 10 10 0 6 -4 10 -10 10 -5 0
-10 -4 -10 -10z"/>
<path d="M3750 1665 c0 -8 4 -15 10 -15 5 0 7 7 4 15 -4 8 -8 15 -10 15 -2 0
-4 -7 -4 -15z"/>
<path d="M3876 1663 c-6 -14 -5 -15 5 -6 7 7 10 15 7 18 -3 3 -9 -2 -12 -12z"/>
<path d="M3907 1658 c-10 -11 -16 -23 -12 -26 3 -4 10 0 14 7 5 7 11 9 14 4 4
-6 -3 -20 -14 -31 -11 -12 -16 -22 -11 -22 17 0 35 30 37 60 2 35 -3 36 -28 8z"/>
<path d="M3850 1630 c6 -11 13 -20 16 -20 2 0 0 9 -6 20 -6 11 -13 20 -16 20
-2 0 0 -9 6 -20z"/>
<path d="M3890 1540 c0 -5 5 -10 11 -10 5 0 7 5 4 10 -3 6 -8 10 -11 10 -2 0
-4 -4 -4 -10z"/>
<path d="M3940 1520 c0 -5 -12 -16 -27 -24 -16 -8 -24 -15 -20 -16 5 0 16 4
26 9 13 7 18 6 18 -4 0 -8 -3 -14 -6 -13 -3 0 -13 0 -21 -1 -12 -1 -12 -3 -2
-10 10 -6 10 -10 -3 -21 -8 -7 -15 -18 -15 -24 0 -6 5 -3 11 7 6 9 15 15 20
11 6 -4 6 -11 -2 -20 -7 -9 -8 -19 -3 -26 9 -12 10 -32 4 -50 -6 -19 -6 -34 1
-43 14 -19 14 -22 1 -38 -19 -23 6 -34 26 -11 16 17 16 17 0 5 -11 -8 -18 -9
-18 -3 0 6 5 14 10 17 6 4 8 11 5 16 -4 5 0 9 7 9 7 0 3 8 -10 18 -13 10 -20
21 -16 25 12 12 26 8 18 -5 -4 -7 -4 -10 1 -6 14 13 12 88 -3 88 -7 0 -10 5
-7 10 4 6 9 8 13 6 4 -2 7 20 7 50 0 30 -3 54 -7 54 -5 0 -8 -4 -8 -10z m2
-72 c-2 -10 -6 -18 -7 -18 -1 0 -5 8 -7 18 -3 11 0 19 7 19 7 0 10 -8 7 -19z
m-2 -53 c7 -9 8 -15 2 -15 -5 0 -12 7 -16 15 -3 8 -4 15 -2 15 2 0 9 -7 16
-15z"/>
<path d="M3750 1470 c0 -5 5 -10 10 -10 6 0 10 5 10 10 0 6 -4 10 -10 10 -5 0
-10 -4 -10 -10z"/>
<path d="M3705 1451 c-3 -5 0 -13 6 -17 7 -4 9 -3 5 4 -3 6 2 13 11 15 16 4
16 5 1 6 -9 0 -19 -3 -23 -8z"/>
<path d="M3714 1405 c3 -23 12 -26 13 -5 1 11 -2 20 -7 20 -4 0 -7 -7 -6 -15z"/>
<path d="M3701 1375 c0 -5 6 -18 14 -29 13 -18 14 -18 12 2 0 11 -4 19 -8 16
-4 -2 -10 2 -12 8 -3 7 -6 9 -6 3z"/>
<path d="M3837 1355 c-4 -8 -3 -16 1 -19 4 -3 9 4 9 15 2 23 -3 25 -10 4z"/>
<path d="M3745 1322 c16 -11 13 -115 -4 -128 -11 -9 -9 -10 10 -9 15 2 23 8
20 16 -2 8 -4 40 -4 72 0 45 -4 57 -16 57 -10 0 -12 -3 -6 -8z"/>
<path d="M3710 1311 c0 -5 7 -12 16 -15 14 -5 15 -4 4 9 -14 17 -20 19 -20 6z"/>
<path d="M3710 1236 c7 -7 13 -7 20 0 6 6 3 10 -10 10 -13 0 -16 -4 -10 -10z"/>
<path d="M3839 1233 c-13 -16 -12 -17 4 -4 9 7 17 15 17 17 0 8 -8 3 -21 -13z"/>
<path d="M3940 1221 c-8 -6 -18 -7 -22 -5 -4 3 -5 -2 -2 -10 8 -22 21 -20 34
4 12 22 11 24 -10 11z"/>
<path d="M3873 1175 c0 -8 4 -12 9 -9 5 3 6 10 3 15 -9 13 -12 11 -12 -6z"/>
<path d="M3945 1180 c-3 -5 -3 -14 0 -20 5 -9 -7 -14 -27 -11 -9 1 -4 -27 7
-36 4 -5 5 -2 0 6 -6 11 -4 13 8 8 9 -3 16 -3 16 1 -1 4 0 9 1 12 3 9 7 50 4
50 -2 0 -6 -4 -9 -10z"/>
<path d="M3915 1170 c-3 -5 -1 -10 4 -10 6 0 11 5 11 10 0 6 -2 10 -4 10 -3 0
-8 -4 -11 -10z"/>
<path d="M3711 1147 c-8 -10 -7 -14 2 -14 8 0 14 6 14 14 0 7 -1 13 -2 13 -2
0 -8 -6 -14 -13z"/>
<path d="M3713 1103 c4 -3 1 -13 -6 -22 -11 -14 -10 -14 5 -2 16 12 16 31 1
31 -4 0 -3 -3 0 -7z"/>
<path d="M3914 1086 c1 -8 8 -22 16 -32 14 -16 13 -17 -5 -10 -11 4 -16 4 -12
0 4 -4 1 -14 -5 -23 -10 -13 -10 -14 2 -3 21 18 34 15 19 -5 -11 -15 -11 -16
1 -6 7 7 15 30 16 50 1 21 0 30 -3 20 -2 -9 -8 -15 -13 -12 -5 3 -7 12 -3 20
3 8 1 15 -5 15 -6 0 -9 -6 -8 -14z"/>
<path d="M3756 1043 c-6 -14 -5 -15 5 -6 7 7 10 15 7 18 -3 3 -9 -2 -12 -12z"/>
<path d="M3949 1008 c-5 -18 -6 -38 -1 -34 7 8 12 36 6 36 -2 0 -4 -1 -5 -2z"/>
<path d="M3756 977 c3 -10 9 -15 12 -12 3 3 0 11 -7 18 -10 9 -11 8 -5 -6z"/>
<path d="M3915 981 c-3 -5 -2 -12 3 -15 5 -3 9 1 9 9 0 17 -3 19 -12 6z"/>
<path d="M3925 950 c-16 -7 -17 -9 -3 -9 9 -1 20 4 23 9 7 11 7 11 -20 0z"/>
<path d="M3754 934 c1 -8 4 -15 7 -16 2 -2 3 -1 2 1 -2 2 2 9 7 16 7 8 5 12
-4 12 -8 0 -13 -6 -12 -13z"/>
<path d="M3936 915 c4 -8 8 -15 10 -15 2 0 4 7 4 15 0 8 -4 15 -10 15 -5 0 -7
-7 -4 -15z"/>
<path d="M3915 900 c3 -5 8 -10 11 -10 2 0 4 5 4 10 0 6 -5 10 -11 10 -5 0 -7
-4 -4 -10z"/>
<path d="M3941 874 c0 -11 3 -14 6 -6 3 7 2 16 -1 19 -3 4 -6 -2 -5 -13z"/>
<path d="M3915 871 c-3 -5 -2 -12 3 -15 5 -3 9 1 9 9 0 17 -3 19 -12 6z"/>
<path d="M3756 838 c3 -5 10 -6 15 -3 13 9 11 12 -6 12 -8 0 -12 -4 -9 -9z"/>
<path d="M3935 820 c3 -5 8 -10 11 -10 2 0 4 5 4 10 0 6 -5 10 -11 10 -5 0 -7
-4 -4 -10z"/>
<path d="M3915 800 c3 -5 8 -10 11 -10 2 0 4 5 4 10 0 6 -5 10 -11 10 -5 0 -7
-4 -4 -10z"/>
<path d="M3915 740 c3 -5 8 -10 11 -10 2 0 4 5 4 10 0 6 -5 10 -11 10 -5 0 -7
-4 -4 -10z"/>
<path d="M3780 80 c0 -5 6 -10 13 -10 8 0 7 -4 -3 -10 -8 -5 -10 -10 -4 -10 7
0 14 -9 17 -19 3 -15 1 -18 -12 -14 -13 5 -14 3 -3 -8 18 -20 30 0 25 44 -3
23 -11 37 -19 37 -8 0 -14 -4 -14 -10z"/>
</g>
</svg>
